<svg xmlns="http://www.w3.org/2000/svg" xmlns:xlink="http://www.w3.org/1999/xlink" viewBox="0 0 423.13 285.67"><defs><style>.cls-1{fill:url(#linear-gradient);}.cls-2{fill:url(#linear-gradient-2);}.cls-3{fill:url(#linear-gradient-3);}.cls-4{fill:url(#linear-gradient-4);}.cls-5{fill:url(#linear-gradient-5);}.cls-6{fill:url(#linear-gradient-6);}.cls-7{fill:url(#linear-gradient-7);}.cls-8{fill:url(#linear-gradient-8);}.cls-9{fill:url(#linear-gradient-9);}.cls-10{fill:url(#linear-gradient-10);}.cls-11{fill:none;clip-rule:evenodd;}.cls-12{clip-path:url(#clip-path);}.cls-13{fill:url(#linear-gradient-11);}.cls-14{mask:url(#mask);}.cls-15{fill:#95eeff;}.cls-15,.cls-17,.cls-19,.cls-22,.cls-29{fill-rule:evenodd;}.cls-16{mask:url(#mask-2);}.cls-17{fill:#0131b8;}.cls-18{mask:url(#mask-3);}.cls-19{fill:#4e046d;}.cls-20{mask:url(#mask-4);}.cls-21{mask:url(#mask-5);}.cls-22{fill:#fff;}.cls-23{clip-path:url(#clip-path-2);}.cls-24{fill:url(#linear-gradient-12);}.cls-25{clip-path:url(#clip-path-3);}.cls-26{fill:url(#linear-gradient-13);}.cls-27{mask:url(#mask-6);}.cls-28{mask:url(#mask-7);}.cls-29{fill:#0049e6;}.cls-30{mask:url(#mask-8);}.cls-31{mask:url(#mask-9);}.cls-32{mask:url(#mask-10);}.cls-33{clip-path:url(#clip-path-4);}.cls-34{fill:url(#linear-gradient-14);}.cls-35{clip-path:url(#clip-path-5);}.cls-36{fill:url(#linear-gradient-15);}.cls-37{clip-path:url(#clip-path-6);}.cls-38{fill:url(#linear-gradient-16);}</style><linearGradient id="linear-gradient" x1="8305.4" y1="3288.77" x2="8201.74" y2="3459.57" gradientTransform="translate(-7863.84 -3315.65)" gradientUnits="userSpaceOnUse"><stop offset="0" stop-color="#fff"/><stop offset="1"/></linearGradient><linearGradient id="linear-gradient-2" x1="8403.31" y1="3292.28" x2="8130.69" y2="3501.39" gradientTransform="translate(-7913.72 -3245.94)" xlink:href="#linear-gradient"/><linearGradient id="linear-gradient-3" x1="8145.66" y1="3438.65" x2="8151.28" y2="3542.06" gradientTransform="translate(-7792.81 -3327.14)" xlink:href="#linear-gradient"/><linearGradient id="linear-gradient-4" x1="8142.58" y1="3440.8" x2="8148.21" y2="3544.21" gradientTransform="translate(-7829.3 -3327.14)" xlink:href="#linear-gradient"/><linearGradient id="linear-gradient-5" x1="8139.51" y1="3442.96" x2="8145.14" y2="3546.36" gradientTransform="translate(-7865.79 -3327.14)" xlink:href="#linear-gradient"/><linearGradient id="linear-gradient-6" x1="8151.59" y1="3360.99" x2="8208.67" y2="3420.04" gradientTransform="translate(-8107.01 -3332.93)" xlink:href="#linear-gradient"/><linearGradient id="linear-gradient-7" x1="8017.86" y1="3213.55" x2="8383.56" y2="3494.06" gradientTransform="translate(-8107.01 -3239.41)" xlink:href="#linear-gradient"/><linearGradient id="linear-gradient-8" x1="8136.99" y1="3409.91" x2="8129.46" y2="3548.62" gradientTransform="translate(-8042.71 -3348.34)" xlink:href="#linear-gradient"/><linearGradient id="linear-gradient-9" x1="8141.12" y1="3412.79" x2="8133.57" y2="3551.51" gradientTransform="translate(-7993.76 -3348.34)" xlink:href="#linear-gradient"/><linearGradient id="linear-gradient-10" x1="8145.24" y1="3415.68" x2="8137.69" y2="3554.39" gradientTransform="translate(-7944.81 -3348.34)" xlink:href="#linear-gradient"/><clipPath id="clip-path"><path class="cls-11" d="M316.65,65.61h0c-58.56,0-106.48,47.92-106.48,106.48s47.92,106.48,106.48,106.48H423.13c-37.05-12-41.85-24.53-41.85-24.53,29.1-21.32,41.85-46.92,41.85-81.95,0-58.56-47.92-106.48-106.48-106.48"/></clipPath><linearGradient id="linear-gradient-11" x1="345.08" y1="75.29" x2="276.56" y2="308.59" gradientUnits="userSpaceOnUse"><stop offset="0" stop-color="#2dd9ff"/><stop offset="1" stop-color="#1a84f7"/></linearGradient><mask id="mask" x="264.41" y="65.73" width="158.72" height="137.03" maskUnits="userSpaceOnUse"><rect class="cls-1" x="264.41" y="65.73" width="158.72" height="137.03"/></mask><mask id="mask-2" x="210.17" y="79.41" width="212.96" height="199.17" maskUnits="userSpaceOnUse"><rect class="cls-2" x="210.17" y="79.41" width="212.96" height="199.17"/></mask><mask id="mask-3" x="341.64" y="160.91" width="29.37" height="29.37" maskUnits="userSpaceOnUse"><rect class="cls-3" x="341.64" y="160.91" width="29.37" height="29.37"/></mask><mask id="mask-4" x="301.97" y="160.91" width="29.37" height="29.37" maskUnits="userSpaceOnUse"><rect class="cls-4" x="301.97" y="160.91" width="29.37" height="29.37"/></mask><mask id="mask-5" x="262.29" y="160.91" width="29.37" height="29.37" maskUnits="userSpaceOnUse"><rect class="cls-5" x="262.29" y="160.91" width="29.37" height="29.37"/></mask><clipPath id="clip-path-2"><path class="cls-11" d="M316.65,153.91A15.08,15.08,0,1,0,331.72,169a15.07,15.07,0,0,0-15.07-15.07"/></clipPath><linearGradient id="linear-gradient-12" x1="316.1" y1="138.49" x2="317.39" y2="210.33" gradientUnits="userSpaceOnUse"><stop offset="0" stop-color="#fff"/><stop offset="1" stop-color="#dfdfdf"/></linearGradient><clipPath id="clip-path-3"><path class="cls-11" d="M142.84,0h0C221.4,0,285.67,64.28,285.67,142.84S221.4,285.67,142.84,285.67H0c49.69-16.13,56.14-32.91,56.14-32.91C17.1,224.16,0,189.82,0,142.84,0,64.28,64.28,0,142.84,0"/></clipPath><linearGradient id="linear-gradient-13" x1="104.7" y1="12.98" x2="196.61" y2="325.94" xlink:href="#linear-gradient-11"/><mask id="mask-6" x="0" y="0.16" width="212.91" height="183.82" maskUnits="userSpaceOnUse"><rect class="cls-6" y="0.16" width="212.91" height="183.82"/></mask><mask id="mask-7" x="0" y="18.5" width="285.67" height="267.17" maskUnits="userSpaceOnUse"><rect class="cls-7" y="18.5" width="285.67" height="267.17"/></mask><mask id="mask-8" x="69.91" y="127.83" width="39.4" height="39.39" maskUnits="userSpaceOnUse"><rect class="cls-8" x="69.91" y="127.83" width="39.4" height="39.39"/></mask><mask id="mask-9" x="123.14" y="127.83" width="39.39" height="39.39" maskUnits="userSpaceOnUse"><rect class="cls-9" x="123.14" y="127.83" width="39.39" height="39.39"/></mask><mask id="mask-10" x="176.37" y="127.83" width="39.39" height="39.39" maskUnits="userSpaceOnUse"><rect class="cls-10" x="176.37" y="127.83" width="39.39" height="39.39"/></mask><clipPath id="clip-path-4"><path class="cls-11" d="M88.2,118.45A20.22,20.22,0,1,1,68,138.67,20.22,20.22,0,0,1,88.2,118.45"/></clipPath><linearGradient id="linear-gradient-14" x1="88.94" y1="96.79" x2="87.23" y2="193.16" xlink:href="#linear-gradient-12"/><clipPath id="clip-path-5"><path class="cls-11" d="M142.84,118.45a20.22,20.22,0,1,1-20.22,20.22,20.22,20.22,0,0,1,20.22-20.22"/></clipPath><linearGradient id="linear-gradient-15" x1="143.57" y1="97.76" x2="141.85" y2="194.13" xlink:href="#linear-gradient-12"/><clipPath id="clip-path-6"><path class="cls-11" d="M197.48,118.45a20.22,20.22,0,1,1-20.22,20.22,20.22,20.22,0,0,1,20.22-20.22"/></clipPath><linearGradient id="linear-gradient-16" x1="198.19" y1="98.73" x2="196.47" y2="195.11" xlink:href="#linear-gradient-12"/></defs><title>chat-logo</title><g id="Layer_2" data-name="Layer 2"><g id="Layer_1-2" data-name="Layer 1"><g class="cls-12"><rect class="cls-13" x="210.17" y="65.61" width="212.96" height="212.96"/></g><g class="cls-14"><path class="cls-15" d="M264.41,79.41c63.07-8.91,136.49,22.12,155,123.35a91.7,91.7,0,0,0,3.77-18.22V172.09c0-83-90-131.69-158.72-92.68"/></g><g class="cls-16"><path class="cls-17" d="M264.41,79.41a106.72,106.72,0,0,0-54.24,92.68c0,58.57,47.92,106.48,106.48,106.48H423.13C214.57,270,220.67,137.52,264.41,79.41"/></g><g class="cls-18"><path class="cls-19" d="M356.33,160.91A14.68,14.68,0,1,0,371,175.59a14.69,14.69,0,0,0-14.68-14.68"/></g><g class="cls-20"><path class="cls-19" d="M316.65,160.91a14.68,14.68,0,1,0,14.68,14.68,14.68,14.68,0,0,0-14.68-14.68"/></g><g class="cls-21"><path class="cls-19" d="M277,160.91a14.68,14.68,0,1,0,14.69,14.68A14.68,14.68,0,0,0,277,160.91"/></g><path class="cls-22" d="M357.38,153.91A15.08,15.08,0,1,0,372.46,169a15.07,15.07,0,0,0-15.08-15.07"/><g class="cls-23"><rect class="cls-24" x="301.58" y="153.91" width="30.15" height="30.15"/></g><path class="cls-22" d="M275.92,153.91A15.08,15.08,0,1,0,291,169a15.08,15.08,0,0,0-15.07-15.07"/><g class="cls-25"><rect class="cls-26" width="285.67" height="285.67"/></g><g class="cls-27"><path class="cls-15" d="M212.91,18.5C128.31,6.55,29.82,48.18,5.06,184A123.2,123.2,0,0,1,0,159.53V142.84C0,31.43,120.71-33.82,212.91,18.5"/></g><g class="cls-28"><path class="cls-29" d="M212.91,18.5c43.35,24.6,72.76,71.2,72.76,124.34,0,78.56-64.27,142.83-142.83,142.83H0C279.77,274.19,271.58,96.46,212.91,18.5"/></g><g class="cls-30"><path class="cls-19" d="M89.61,127.83a19.7,19.7,0,1,1-19.7,19.7,19.7,19.7,0,0,1,19.7-19.7"/></g><g class="cls-31"><path class="cls-19" d="M142.84,127.83a19.7,19.7,0,1,1-19.7,19.7,19.69,19.69,0,0,1,19.7-19.7"/></g><g class="cls-32"><path class="cls-19" d="M196.06,127.83a19.7,19.7,0,1,1-19.69,19.7,19.7,19.7,0,0,1,19.69-19.7"/></g><g class="cls-33"><rect class="cls-34" x="67.98" y="118.45" width="40.44" height="40.44"/></g><g class="cls-35"><rect class="cls-36" x="122.62" y="118.45" width="40.44" height="40.44"/></g><g class="cls-37"><rect class="cls-38" x="177.26" y="118.45" width="40.44" height="40.44"/></g></g></g></svg>