<svg width="91" height="90" viewBox="0 0 91 90" fill="none" xmlns="http://www.w3.org/2000/svg">
                            <rect x="0.0688477" width="90" height="90" rx="5" fill="#F2F9FF"/>
                            <path d="M60.3254 61.6762H29.8123C28.186 61.6762 26.8677 60.3578 26.8677 58.7316V33.3238C26.8677 31.6975 28.186 30.3792 29.8123 30.3792H60.3254C61.9517 30.3792 63.27 31.6975 63.27 33.3238V58.7316C63.27 60.3578 61.9517 61.6762 60.3254 61.6762Z" fill="url(#paint0_linear)"/>
                            <path d="M59.6447 60.9783H30.4926C28.9388 60.9783 27.6792 59.7187 27.6792 58.1649V33.8904C27.6792 32.3366 28.9387 31.077 30.4926 31.077H59.6447C61.1984 31.077 62.458 32.3366 62.458 33.8904V58.165C62.4581 59.7187 61.1985 60.9783 59.6447 60.9783Z" fill="url(#paint1_linear)"/>
                            <path d="M61.2974 38.5977L53.9579 25.8855C53.4691 25.0387 52.3862 24.7486 51.5394 25.2375L28.3989 38.5977H61.2974Z" fill="url(#paint2_linear)"/>
                            <path d="M26.8677 48.8288H63.27V39.1872C63.27 37.9702 62.2835 36.9838 61.0666 36.9838H29.0711C27.8542 36.9838 26.8677 37.9702 26.8677 39.1872V48.8288Z" fill="url(#paint3_linear)"/>
                            <path d="M26.8677 45.2028V58.7317C26.8677 60.3579 28.186 61.6764 29.8124 61.6764H60.3254C61.9517 61.6764 63.27 60.358 63.27 58.7318V45.2028C63.27 44.1983 62.4557 43.384 61.4513 43.384H28.6864C27.682 43.384 26.8677 44.1983 26.8677 45.2028Z" fill="url(#paint4_linear)"/>
                            <path d="M57.7783 38.2247V61.6764H60.3256C61.9518 61.6764 63.2702 60.358 63.2702 58.7318V43.7166L57.7783 38.2247Z" fill="url(#paint5_linear)"/>
                            <path d="M55.2952 64.9778L29.7415 62.01C28.1034 61.8197 26.8677 60.4323 26.8677 58.7832V33.1042C26.8677 33.6561 27.2812 34.1203 27.8292 34.184L56.0446 37.461C57.6828 37.6514 58.9185 39.0388 58.9185 40.6879V61.751C58.9185 63.6936 57.2248 65.2021 55.2952 64.9778Z" fill="url(#paint6_linear)"/>
                            <path d="M55.2952 59.8486L29.7415 56.8808C28.1034 56.6905 26.8677 55.3031 26.8677 53.6539V58.7832C26.8677 60.4323 28.1034 61.8198 29.7415 62.01L55.2952 64.9778C57.2248 65.202 58.9185 63.6936 58.9185 61.751V56.6217C58.9185 58.5644 57.2248 60.0727 55.2952 59.8486Z" fill="url(#paint7_linear)"/>
                            <path d="M29.1587 37.1067C29.1373 37.1067 29.1156 37.1055 29.0938 37.1031L27.9244 36.9745C27.6015 36.939 27.3684 36.6485 27.404 36.3256C27.4395 36.0027 27.7302 35.7699 28.0529 35.8052L29.2223 35.9338C29.5452 35.9693 29.7783 36.2598 29.7427 36.5827C29.7096 36.8838 29.4548 37.1067 29.1587 37.1067Z" fill="url(#paint8_linear)"/>
                            <path d="M53.1874 63.0399C53.1627 63.0399 53.1375 63.0382 53.1124 63.0351L50.8397 62.7461C50.5175 62.7052 50.2893 62.4106 50.3304 62.0883C50.3714 61.7661 50.6658 61.5393 50.9882 61.579L53.2609 61.868C53.5831 61.9089 53.8113 62.2035 53.7702 62.5258C53.7323 62.8228 53.4792 63.0399 53.1874 63.0399ZM55.4244 62.7487C55.2038 62.7487 54.9922 62.6239 54.8919 62.411C54.7534 62.1171 54.8794 61.7666 55.1733 61.6282C55.7701 61.347 56.219 60.8806 56.4048 60.3484C56.5119 60.0418 56.8475 59.8801 57.1541 59.987C57.4608 60.0941 57.6226 60.4295 57.5155 60.7363C57.222 61.5767 56.5683 62.2715 55.6747 62.6924C55.5937 62.7306 55.5085 62.7487 55.4244 62.7487ZM48.642 62.4619C48.6173 62.4619 48.5922 62.4602 48.567 62.4571L46.2943 62.1681C45.9721 62.1272 45.7439 61.8327 45.785 61.5103C45.826 61.1881 46.1204 60.9613 46.4428 61.001L48.7155 61.29C49.0377 61.331 49.2659 61.6255 49.2248 61.9478C49.1869 62.2448 48.9336 62.4619 48.642 62.4619ZM44.0966 61.8838C44.0719 61.8838 44.0468 61.8822 44.0216 61.8791L41.7489 61.5901C41.4267 61.5492 41.1985 61.2546 41.2396 60.9323C41.2806 60.6101 41.5751 60.3821 41.8974 60.423L44.1701 60.712C44.4923 60.7529 44.7205 61.0474 44.6794 61.3698C44.6415 61.6667 44.3883 61.8838 44.0966 61.8838ZM39.5511 61.3058C39.5264 61.3058 39.5013 61.3042 39.4761 61.301L37.2032 61.012C36.881 60.971 36.6529 60.6765 36.694 60.3542C36.735 60.0319 37.0296 59.805 37.3518 59.8449L39.6246 60.1339C39.9468 60.1749 40.175 60.4694 40.1339 60.7917C40.0961 61.0888 39.8429 61.3058 39.5511 61.3058ZM35.0057 60.7277C34.981 60.7277 34.9559 60.7261 34.9307 60.723L32.6579 60.4339C32.3356 60.3929 32.1075 60.0985 32.1486 59.7761C32.1896 59.4538 32.4842 59.2269 32.8064 59.2668L35.0792 59.5559C35.4015 59.5969 35.6296 59.8913 35.5885 60.2137C35.5507 60.5108 35.2975 60.7277 35.0057 60.7277ZM57.0922 58.8547C56.7672 58.8547 56.504 58.5914 56.504 58.2665V55.9755C56.504 55.6506 56.7672 55.3873 57.0922 55.3873C57.4171 55.3873 57.6804 55.6506 57.6804 55.9755V58.2665C57.6804 58.5914 57.4172 58.8547 57.0922 58.8547ZM57.0922 54.2727C56.7672 54.2727 56.504 54.0095 56.504 53.6845V51.3935C56.504 51.0686 56.7672 50.8053 57.0922 50.8053C57.4171 50.8053 57.6804 51.0686 57.6804 51.3935V53.6845C57.6804 54.0094 57.4172 54.2727 57.0922 54.2727ZM57.0922 49.6907C56.7672 49.6907 56.504 49.4274 56.504 49.1025V46.8115C56.504 46.4866 56.7672 46.2233 57.0922 46.2233C57.4171 46.2233 57.6804 46.4866 57.6804 46.8115V49.1025C57.6804 49.4274 57.4172 49.6907 57.0922 49.6907ZM57.0922 45.1087C56.7672 45.1087 56.504 44.8454 56.504 44.5205V42.2295C56.504 41.9045 56.7672 41.6413 57.0922 41.6413C57.4171 41.6413 57.6804 41.9045 57.6804 42.2295V44.5205C57.6804 44.8453 57.4172 45.1087 57.0922 45.1087ZM56.2695 40.7614C56.1243 40.7614 55.9787 40.7079 55.865 40.6002C55.429 40.187 54.824 39.9238 54.1611 39.8589L54.1455 39.8573C53.8225 39.8225 53.5888 39.5324 53.6236 39.2095C53.6584 38.8864 53.9484 38.6527 54.2715 38.6876L54.2815 38.6887C55.1976 38.7785 56.0493 39.1542 56.6743 39.7462C56.9101 39.9696 56.9201 40.342 56.6967 40.5778C56.5809 40.6998 56.4254 40.7614 56.2695 40.7614ZM51.9318 39.6103C51.9104 39.6103 51.8886 39.6091 51.8668 39.6067L49.5896 39.3563C49.2667 39.3208 49.0336 39.0303 49.0691 38.7074C49.1047 38.3845 49.3954 38.1521 49.718 38.187L51.9953 38.4374C52.3182 38.4729 52.5513 38.7634 52.5157 39.0863C52.4827 39.3874 52.2278 39.6103 51.9318 39.6103ZM47.3773 39.1095C47.3559 39.1095 47.3342 39.1083 47.3124 39.106L45.035 38.8556C44.7122 38.82 44.479 38.5295 44.5146 38.2067C44.55 37.8837 44.8412 37.651 45.1635 37.6862L47.4408 37.9366C47.7637 37.9721 47.9968 38.2626 47.9613 38.5855C47.9282 38.8867 47.6733 39.1095 47.3773 39.1095ZM42.8226 38.6088C42.8012 38.6088 42.7795 38.6076 42.7577 38.6052L40.4804 38.3549C40.1575 38.3193 39.9244 38.0288 39.96 37.706C39.9954 37.3831 40.286 37.1504 40.6089 37.1855L42.8861 37.4359C43.209 37.4714 43.4422 37.7619 43.4066 38.0848C43.3736 38.3859 43.1187 38.6088 42.8226 38.6088ZM38.268 38.1081C38.2466 38.1081 38.2249 38.1069 38.2031 38.1045L35.9258 37.8542C35.6029 37.8186 35.3698 37.5281 35.4054 37.2052C35.4408 36.8824 35.7311 36.6499 36.0543 36.6848L38.3315 36.9352C38.6544 36.9707 38.8875 37.2612 38.852 37.5841C38.819 37.8852 38.5641 38.1081 38.268 38.1081ZM33.7134 37.6074C33.692 37.6074 33.6703 37.6061 33.6485 37.6038L31.3712 37.3534C31.0483 37.3178 30.8152 37.0274 30.8507 36.7045C30.8863 36.3817 31.1766 36.1492 31.4997 36.184L33.7769 36.4344C34.0999 36.4699 34.3329 36.7604 34.2974 37.0833C34.2643 37.3844 34.0094 37.6074 33.7134 37.6074Z" fill="url(#paint9_linear)"/>
                            <path d="M30.4544 60.1491C30.4297 60.1491 30.4047 60.1475 30.3795 60.1443L29.2124 59.9959C28.8901 59.955 28.6619 59.6605 28.703 59.3382C28.744 59.0159 29.0385 58.788 29.3608 58.8288L30.5279 58.9772C30.8501 59.0181 31.0783 59.3127 31.0372 59.6349C30.9994 59.932 30.7462 60.1491 30.4544 60.1491Z" fill="url(#paint10_linear)"/>
                            <path d="M52.0665 29.3803L48.3018 31.4289C47.8114 31.6957 47.1976 31.5146 46.9307 31.0242C46.6639 30.5338 46.8451 29.92 47.3355 29.6531L51.1003 27.6046C51.5907 27.3378 52.2045 27.5189 52.4714 28.0093C52.7382 28.4996 52.557 29.1135 52.0665 29.3803Z" fill="#61DB99"/>
                            <path d="M58.9183 53.4235L55.1823 49.6875C54.6552 49.1135 53.8988 48.7535 53.0581 48.7535C51.4654 48.7535 50.1743 50.0447 50.1743 51.6373C50.1743 52.478 50.5343 53.2345 51.1083 53.7615L58.9184 61.5716V53.4235H58.9183Z" fill="url(#paint11_linear)"/>
                            <path d="M53.0581 54.5206C54.6507 54.5206 55.9418 53.2295 55.9418 51.6368C55.9418 50.0441 54.6507 48.7531 53.0581 48.7531C51.4654 48.7531 50.1743 50.0441 50.1743 51.6368C50.1743 53.2295 51.4654 54.5206 53.0581 54.5206Z" fill="url(#paint12_linear)"/>
                            <path d="M53.0575 53.627C54.1567 53.627 55.0477 52.736 55.0477 51.6369C55.0477 50.5378 54.1567 49.6467 53.0575 49.6467C51.9584 49.6467 51.0674 50.5378 51.0674 51.6369C51.0674 52.736 51.9584 53.627 53.0575 53.627Z" fill="url(#paint13_linear)"/>
                            <path d="M52.3019 51.2927C52.5294 51.2927 52.7137 51.1083 52.7137 50.8809C52.7137 50.6535 52.5294 50.4691 52.3019 50.4691C52.0745 50.4691 51.8901 50.6535 51.8901 50.8809C51.8901 51.1083 52.0745 51.2927 52.3019 51.2927Z" fill="url(#paint14_linear)"/>
                            <path d="M53.8141 51.2927C54.0416 51.2927 54.2259 51.1083 54.2259 50.8809C54.2259 50.6535 54.0416 50.4691 53.8141 50.4691C53.5867 50.4691 53.4023 50.6535 53.4023 50.8809C53.4023 51.1083 53.5867 51.2927 53.8141 51.2927Z" fill="url(#paint15_linear)"/>
                            <path d="M52.3019 52.8055C52.5294 52.8055 52.7137 52.6212 52.7137 52.3937C52.7137 52.1663 52.5294 51.9819 52.3019 51.9819C52.0745 51.9819 51.8901 52.1663 51.8901 52.3937C51.8901 52.6212 52.0745 52.8055 52.3019 52.8055Z" fill="url(#paint16_linear)"/>
                            <path d="M53.8141 52.8055C54.0416 52.8055 54.2259 52.6212 54.2259 52.3937C54.2259 52.1663 54.0416 51.9819 53.8141 51.9819C53.5867 51.9819 53.4023 52.1663 53.4023 52.3937C53.4023 52.6212 53.5867 52.8055 53.8141 52.8055Z" fill="url(#paint17_linear)"/>
                            <g clip-path="url(#clip0)">
                            <path d="M40.042 36.5625C45.0471 36.5625 49.1045 32.5051 49.1045 27.5C49.1045 22.4949 45.0471 18.4375 40.042 18.4375C35.0369 18.4375 30.9795 22.4949 30.9795 27.5C30.9795 32.5051 35.0369 36.5625 40.042 36.5625Z" fill="#FFD754"/>
                            <path d="M40.042 34.6875C44.0115 34.6875 47.2295 31.4695 47.2295 27.5C47.2295 23.5305 44.0115 20.3125 40.042 20.3125C36.0724 20.3125 32.8545 23.5305 32.8545 27.5C32.8545 31.4695 36.0724 34.6875 40.042 34.6875Z" fill="#EDB90C"/>
                            <path d="M35.9795 27.8125C35.8966 27.8125 35.8171 27.8454 35.7585 27.904C35.6999 27.9626 35.667 28.0421 35.667 28.125C35.667 28.2079 35.6999 28.2874 35.7585 28.346C35.8171 28.4046 35.8966 28.4375 35.9795 28.4375H37.2295V30.625C37.2295 30.7079 37.2624 30.7874 37.321 30.846C37.3796 30.9046 37.4591 30.9375 37.542 30.9375C37.6249 30.9375 37.7044 30.9046 37.763 30.846C37.8216 30.7874 37.8545 30.7079 37.8545 30.625V28.4375H40.3918L42.298 30.8203C42.3385 30.8709 42.3937 30.9076 42.4559 30.9254C42.5182 30.9433 42.5844 30.9413 42.6455 30.9199C42.7066 30.8984 42.7595 30.8585 42.7969 30.8057C42.8344 30.7529 42.8545 30.6898 42.8545 30.625V28.4375H44.1045C44.1874 28.4375 44.2669 28.4046 44.3255 28.346C44.3841 28.2874 44.417 28.2079 44.417 28.125C44.417 28.0421 44.3841 27.9626 44.3255 27.904C44.2669 27.8454 44.1874 27.8125 44.1045 27.8125H42.8545V27.1875H44.1045C44.1874 27.1875 44.2669 27.1546 44.3255 27.096C44.3841 27.0374 44.417 26.9579 44.417 26.875C44.417 26.7921 44.3841 26.7126 44.3255 26.654C44.2669 26.5954 44.1874 26.5625 44.1045 26.5625H42.8545V24.375C42.8545 24.2921 42.8216 24.2126 42.763 24.154C42.7044 24.0954 42.6249 24.0625 42.542 24.0625C42.4591 24.0625 42.3796 24.0954 42.321 24.154C42.2624 24.2126 42.2295 24.2921 42.2295 24.375V26.5625H39.6922L37.7859 24.1797C37.7455 24.1291 37.6903 24.0924 37.6281 24.0746C37.5658 24.0568 37.4996 24.0587 37.4385 24.0801C37.3774 24.1016 37.3245 24.1415 37.287 24.1943C37.2496 24.2471 37.2295 24.3103 37.2295 24.375V26.5625H35.9795C35.8966 26.5625 35.8171 26.5954 35.7585 26.654C35.6999 26.7126 35.667 26.7921 35.667 26.875C35.667 26.9579 35.6999 27.0374 35.7585 27.096C35.8171 27.1546 35.8966 27.1875 35.9795 27.1875H37.2295V27.8125H35.9795ZM42.2295 29.7341L41.1922 28.4375H42.2295V29.7341ZM42.2295 27.1875V27.8125H40.6922L40.1922 27.1875H42.2295ZM37.8545 25.2659L38.8918 26.5625H37.8545V25.2659ZM37.8545 27.1875H39.3918L39.8918 27.8125H37.8545V27.1875Z" fill="#FBE36A"/>
                            <path d="M32.9633 26.5625C32.9176 26.5625 32.8725 26.5526 32.8311 26.5333C32.7897 26.5141 32.7531 26.486 32.7237 26.4511C32.6943 26.4161 32.673 26.3752 32.6611 26.3311C32.6493 26.287 32.6472 26.2409 32.6551 26.1959C32.9238 24.681 33.6514 23.2851 34.7393 22.1972C35.8273 21.1092 37.2232 20.3817 38.7381 20.113C38.8197 20.0987 38.9037 20.1174 38.9716 20.165C39.0394 20.2126 39.0856 20.2852 39.0999 20.3668C39.1142 20.4484 39.0955 20.5324 39.0479 20.6003C39.0003 20.6681 38.9277 20.7143 38.8461 20.7286C37.4575 20.9749 36.1782 21.6417 35.181 22.6389C34.1838 23.636 33.517 24.9154 33.2707 26.304C33.258 26.3763 33.2203 26.4419 33.164 26.4892C33.1078 26.5364 33.0367 26.5624 32.9633 26.5625Z" fill="#FBEFB2"/>
                            <path d="M41.2916 34.8919C41.2134 34.8919 41.138 34.8626 41.0803 34.8097C41.0226 34.7568 40.9869 34.6842 40.9802 34.6063C40.9734 34.5283 40.9962 34.4507 41.0439 34.3887C41.0917 34.3267 41.1609 34.2849 41.238 34.2715C42.6266 34.0252 43.9059 33.3584 44.9031 32.3612C45.9003 31.364 46.5671 30.0846 46.8134 28.6961C46.8202 28.6554 46.835 28.6165 46.857 28.5816C46.8789 28.5467 46.9075 28.5165 46.9412 28.4927C46.9748 28.4688 47.0129 28.4519 47.0531 28.4429C47.0934 28.4339 47.135 28.4329 47.1756 28.44C47.2162 28.4471 47.255 28.4622 47.2898 28.4844C47.3245 28.5066 47.3545 28.5354 47.3781 28.5693C47.4016 28.6031 47.4183 28.6413 47.427 28.6816C47.4357 28.7219 47.4364 28.7635 47.429 28.8041C47.1603 30.319 46.4327 31.7149 45.3448 32.8029C44.2568 33.8908 42.8609 34.6184 41.346 34.8871C41.328 34.8903 41.3099 34.8919 41.2916 34.8919Z" fill="#FBEFB2"/>
                            <path d="M32.8545 27.8125C33.0271 27.8125 33.167 27.6726 33.167 27.5C33.167 27.3274 33.0271 27.1875 32.8545 27.1875C32.6819 27.1875 32.542 27.3274 32.542 27.5C32.542 27.6726 32.6819 27.8125 32.8545 27.8125Z" fill="#FBEFB2"/>
                            <path d="M40.042 20.625C40.2146 20.625 40.3545 20.4851 40.3545 20.3125C40.3545 20.1399 40.2146 20 40.042 20C39.8694 20 39.7295 20.1399 39.7295 20.3125C39.7295 20.4851 39.8694 20.625 40.042 20.625Z" fill="#FBEFB2"/>
                            <path d="M47.2295 27.8125C47.4021 27.8125 47.542 27.6726 47.542 27.5C47.542 27.3274 47.4021 27.1875 47.2295 27.1875C47.0569 27.1875 46.917 27.3274 46.917 27.5C46.917 27.6726 47.0569 27.8125 47.2295 27.8125Z" fill="#FBEFB2"/>
                            <path d="M40.042 35C40.2146 35 40.3545 34.8601 40.3545 34.6875C40.3545 34.5149 40.2146 34.375 40.042 34.375C39.8694 34.375 39.7295 34.5149 39.7295 34.6875C39.7295 34.8601 39.8694 35 40.042 35Z" fill="#FBEFB2"/>
                            </g>
                            <defs>
                            <linearGradient id="paint0_linear" x1="45.6637" y1="28.5752" x2="45.4512" y2="34.8069" gradientUnits="userSpaceOnUse">
                            <stop stop-color="#FFB92D"/>
                            <stop offset="1" stop-color="#F59500"/>
                            </linearGradient>
                            <linearGradient id="paint1_linear" x1="46.6826" y1="32.7129" x2="46.1038" y2="37.4869" gradientUnits="userSpaceOnUse">
                            <stop stop-color="#FFB92D"/>
                            <stop offset="1" stop-color="#F59500"/>
                            </linearGradient>
                            <linearGradient id="paint2_linear" x1="44.8477" y1="32.854" x2="44.8477" y2="36.4908" gradientUnits="userSpaceOnUse">
                            <stop stop-color="#A7F3CE"/>
                            <stop offset="1" stop-color="#61DB99"/>
                            </linearGradient>
                            <linearGradient id="paint3_linear" x1="45.0684" y1="39.1496" x2="45.0684" y2="49.3548" gradientUnits="userSpaceOnUse">
                            <stop stop-color="#FF4C54"/>
                            <stop offset="1" stop-color="#BE3F45"/>
                            </linearGradient>
                            <linearGradient id="paint4_linear" x1="45.0684" y1="46.7275" x2="45.0684" y2="62.4888" gradientUnits="userSpaceOnUse">
                            <stop stop-color="#FF4C54"/>
                            <stop offset="1" stop-color="#BE3F45"/>
                            </linearGradient>
                            <linearGradient id="paint5_linear" x1="61.1992" y1="49.9508" x2="58.5436" y2="49.9508" gradientUnits="userSpaceOnUse">
                            <stop stop-color="#BE3F45" stop-opacity="0"/>
                            <stop offset="1" stop-color="#BE3F45"/>
                            </linearGradient>
                            <linearGradient id="paint6_linear" x1="37.4485" y1="47.2246" x2="50.958" y2="53.4563" gradientUnits="userSpaceOnUse">
                            <stop stop-color="#FFB92D"/>
                            <stop offset="1" stop-color="#F59500"/>
                            </linearGradient>
                            <linearGradient id="paint7_linear" x1="42.4624" y1="61.0997" x2="41.9039" y2="65.3678" gradientUnits="userSpaceOnUse">
                            <stop stop-color="#BE3F45" stop-opacity="0"/>
                            <stop offset="1" stop-color="#BE3F45"/>
                            </linearGradient>
                            <linearGradient id="paint8_linear" x1="28.5732" y1="35.8022" x2="28.5732" y2="63.0965" gradientUnits="userSpaceOnUse">
                            <stop stop-color="#FFF465"/>
                            <stop offset="1" stop-color="#FFE600"/>
                            </linearGradient>
                            <linearGradient id="paint9_linear" x1="44.2634" y1="35.803" x2="44.2634" y2="63.04" gradientUnits="userSpaceOnUse">
                            <stop stop-color="#FFF465"/>
                            <stop offset="1" stop-color="#FFE600"/>
                            </linearGradient>
                            <linearGradient id="paint10_linear" x1="29.87" y1="35.8016" x2="29.87" y2="63.0951" gradientUnits="userSpaceOnUse">
                            <stop stop-color="#FFF465"/>
                            <stop offset="1" stop-color="#FFE600"/>
                            </linearGradient>
                            <linearGradient id="paint11_linear" x1="56.9064" y1="55.4866" x2="48.825" y2="47.4052" gradientUnits="userSpaceOnUse">
                            <stop stop-color="#BE3F45" stop-opacity="0"/>
                            <stop offset="1" stop-color="#BE3F45"/>
                            </linearGradient>
                            <linearGradient id="paint12_linear" x1="53.0574" y1="49.827" x2="53.0574" y2="53.9971" gradientUnits="userSpaceOnUse">
                            <stop stop-color="#FF4C54"/>
                            <stop offset="1" stop-color="#BE3F45"/>
                            </linearGradient>
                            <linearGradient id="paint13_linear" x1="53.0569" y1="52.8866" x2="53.0569" y2="50.009" gradientUnits="userSpaceOnUse">
                            <stop stop-color="#FF4C54"/>
                            <stop offset="1" stop-color="#BE3F45"/>
                            </linearGradient>
                            <linearGradient id="paint14_linear" x1="48.3983" y1="33.6447" x2="49.2218" y2="37.2815" gradientUnits="userSpaceOnUse">
                            <stop stop-color="#A7F3CE"/>
                            <stop offset="1" stop-color="#61DB99"/>
                            </linearGradient>
                            <linearGradient id="paint15_linear" x1="49.9105" y1="33.6449" x2="50.734" y2="37.2816" gradientUnits="userSpaceOnUse">
                            <stop stop-color="#A7F3CE"/>
                            <stop offset="1" stop-color="#61DB99"/>
                            </linearGradient>
                            <linearGradient id="paint16_linear" x1="48.0724" y1="33.7183" x2="48.896" y2="37.3551" gradientUnits="userSpaceOnUse">
                            <stop stop-color="#A7F3CE"/>
                            <stop offset="1" stop-color="#61DB99"/>
                            </linearGradient>
                            <linearGradient id="paint17_linear" x1="49.5846" y1="33.7185" x2="50.4081" y2="37.3553" gradientUnits="userSpaceOnUse">
                            <stop stop-color="#A7F3CE"/>
                            <stop offset="1" stop-color="#61DB99"/>
                            </linearGradient>
                            <clipPath id="clip0">
                            <rect width="20" height="20" fill="white" transform="translate(30.042 17.5)"/>
                            </clipPath>
                            </defs>
                            </svg>
                            
                   