<svg width="73" height="74" viewBox="0 0 73 74" fill="none" xmlns="http://www.w3.org/2000/svg">
<rect x="2" y="2" width="42" height="70" rx="3" fill="white" stroke="#21B8C7" stroke-width="4"/>
<line x1="1" y1="12" x2="46" y2="12" stroke="#21B8C7" stroke-width="4"/>
<line x1="1" y1="57" x2="46" y2="57" stroke="#21B8C7" stroke-width="4"/>
<circle cx="23" cy="65" r="3" fill="#00B9CD"/>
<path d="M26.3899 29.0121L26.4015 29.25H26.6396H29.9891H30.2495L30.2388 28.9897C30.1306 26.3566 28.529 23.9315 25.3741 23.0906V20V19.75H25.1241H20.5773H20.3273V20V23.04C17.4188 23.7244 15.0228 25.6587 15.0228 28.655C15.0228 30.4708 15.7871 31.8381 17.0937 32.8711C18.3884 33.8947 20.2111 34.5877 22.3382 35.0932L22.3382 35.0932C24.2163 35.5393 25.3035 36.0814 25.9199 36.6549C26.5223 37.2153 26.6927 37.8222 26.6927 38.465C26.6927 38.9244 26.5284 39.523 25.9859 40.0095C25.4419 40.4972 24.4866 40.9 22.8507 40.9C21.3232 40.9 20.298 40.5621 19.639 40.0425C18.9852 39.5268 18.6615 38.8081 18.5832 37.9766L18.5618 37.75H18.3343H15H14.7358L14.7504 38.0138C14.9366 41.3765 17.4368 43.2753 20.3273 43.9457V47V47.25H20.5773H25.1241H25.3741V47V43.9805C26.8018 43.6846 28.0977 43.1185 29.0536 42.2417C30.0609 41.3178 30.6786 40.0589 30.6786 38.45C30.6786 36.2322 29.7132 34.7325 28.3065 33.6839C26.914 32.646 25.0922 32.0515 23.3676 31.6079C21.6532 31.1669 20.5558 30.7262 19.8896 30.2383C19.5602 29.9971 19.3428 29.7489 19.2066 29.4894C19.0708 29.2308 19.0086 28.9475 19.0086 28.625C19.0086 27.8958 19.3458 27.276 19.987 26.8295C20.6355 26.378 21.6034 26.1 22.8507 26.1C24.1635 26.1 25.0171 26.4103 25.553 26.9055C26.0874 27.3992 26.3464 28.1142 26.3899 29.0121Z" fill="#00B9CD" stroke="#00B9CD" stroke-width="0.5"/>
<path d="M44 26H64.7276L71 31.8677V45.5H44V26Z" fill="white" stroke="#00B9CD" stroke-width="4"/>
<line x1="45.207" y1="39" x2="58.0346" y2="39" stroke="#00B9CD" stroke-width="4"/>
<line x1="57.8965" y1="37" x2="57.8965" y2="47" stroke="#00B9CD" stroke-width="4"/>
</svg>
