<svg width="100" height="100" viewBox="0 0 140 140" fill="none" xmlns="http://www.w3.org/2000/svg">
                                                <path d="M52.5 87.5L87.5 52.5" stroke="#000070" stroke-width="2.75" stroke-linecap="round" stroke-linejoin="round"/>
                                                <path d="M55.4167 58.3333C57.0275 58.3333 58.3333 57.0275 58.3333 55.4167C58.3333 53.8058 57.0275 52.5 55.4167 52.5C53.8058 52.5 52.5 53.8058 52.5 55.4167C52.5 57.0275 53.8058 58.3333 55.4167 58.3333Z" fill="black" stroke="#000070" stroke-width="2.75" stroke-linecap="round" stroke-linejoin="round"/>
                                                <path d="M84.5837 87.5003C86.1945 87.5003 87.5003 86.1945 87.5003 84.5837C87.5003 82.9728 86.1945 81.667 84.5837 81.667C82.9728 81.667 81.667 82.9728 81.667 84.5837C81.667 86.1945 82.9728 87.5003 84.5837 87.5003Z" fill="black" stroke="#000070" stroke-width="2.75" stroke-linecap="round" stroke-linejoin="round"/>
                                                <path d="M29.1664 41.9998C29.1664 38.5961 30.5185 35.3319 32.9252 32.9252C35.3319 30.5185 38.5961 29.1664 41.9998 29.1664H47.8331C51.2217 29.1645 54.472 27.8224 56.8748 25.4331L60.9581 21.3498C62.1507 20.1504 63.5686 19.1987 65.1303 18.5492C66.692 17.8998 68.3667 17.5654 70.0581 17.5654C71.7495 17.5654 73.4241 17.8998 74.9858 18.5492C76.5476 19.1987 77.9655 20.1504 79.1581 21.3498L83.2414 25.4331C85.6442 27.8224 88.8945 29.1645 92.2831 29.1664H98.1164C101.52 29.1664 104.784 30.5185 107.191 32.9252C109.598 35.3319 110.95 38.5961 110.95 41.9998V47.8331C110.952 51.2217 112.294 54.472 114.683 56.8748L118.766 60.9581C119.966 62.1507 120.918 63.5686 121.567 65.1303C122.216 66.692 122.551 68.3667 122.551 70.0581C122.551 71.7495 122.216 73.4241 121.567 74.9858C120.918 76.5476 119.966 77.9655 118.766 79.1581L114.683 83.2414C112.294 85.6442 110.952 88.8945 110.95 92.2831V98.1164C110.95 101.52 109.598 104.784 107.191 107.191C104.784 109.598 101.52 110.95 98.1164 110.95H92.2831C88.8945 110.952 85.6442 112.294 83.2414 114.683L79.1581 118.766C77.9655 119.966 76.5476 120.918 74.9858 121.567C73.4241 122.216 71.7495 122.551 70.0581 122.551C68.3667 122.551 66.692 122.216 65.1303 121.567C63.5686 120.918 62.1507 119.966 60.9581 118.766L56.8748 114.683C54.472 112.294 51.2217 110.952 47.8331 110.95H41.9998C38.5961 110.95 35.3319 109.598 32.9252 107.191C30.5185 104.784 29.1664 101.52 29.1664 98.1164V92.2831C29.1645 88.8945 27.8224 85.6442 25.4331 83.2414L21.3498 79.1581C20.1504 77.9655 19.1987 76.5476 18.5492 74.9858C17.8998 73.4241 17.5654 71.7495 17.5654 70.0581C17.5654 68.3667 17.8998 66.692 18.5492 65.1303C19.1987 63.5686 20.1504 62.1507 21.3498 60.9581L25.4331 56.8748C27.8224 54.472 29.1645 51.2217 29.1664 47.8331V41.9998" stroke="#000070" stroke-width="2.75" stroke-linecap="round" stroke-linejoin="round"/>
                                            </svg> 