<svg width="81" height="63" viewBox="0 0 21 23" fill="none" xmlns="http://www.w3.org/2000/svg">
    <rect x="1.03491" y="0.593445" width="11.3227" height="21" rx="1.5" stroke="#7F7FB7" />
    <line x1="0.802795" y1="3.75565" x2="12.8576" y2="3.75565" stroke="#7F7FB7" />
    <line x1="0.802795" y1="17.134" x2="12.8576" y2="17.134" stroke="#7F7FB7" />
    <ellipse cx="6.69626" cy="19.4178" rx="0.803653" ry="0.891892" fill="#7F7FB7" />
    <path
        d="M6.77805 9.56235C5.85643 9.29924 5.56005 9.02722 5.56005 8.60357C5.56005 8.11749 5.97011 7.77857 6.65625 7.77857C7.37892 7.77857 7.64688 8.15762 7.67124 8.71505H8.5685C8.54008 7.94803 8.11378 7.24343 7.26524 7.016V6.03938H6.04725V7.00262C5.25961 7.18992 4.62625 7.75181 4.62625 8.61249C4.62625 9.64262 5.40171 10.1555 6.53445 10.4542C7.54944 10.7218 7.75244 11.1142 7.75244 11.529C7.75244 11.8367 7.5535 12.3272 6.65625 12.3272C5.81989 12.3272 5.49103 11.9169 5.44637 11.3907H4.55317C4.60189 12.3674 5.26773 12.9159 6.04725 13.0987V14.0664H7.26524V13.1076C8.05694 12.9426 8.68624 12.4387 8.68624 11.5245C8.68624 10.258 7.69966 9.82546 6.77805 9.56235Z"
        fill="#7F7FB7" />
    <path
        d="M6.77805 9.56235C5.85643 9.29924 5.56005 9.02722 5.56005 8.60357C5.56005 8.11749 5.97011 7.77857 6.65625 7.77857C7.37892 7.77857 7.64688 8.15762 7.67124 8.71505H8.5685C8.54008 7.94803 8.11378 7.24343 7.26524 7.016V6.03938H6.04725V7.00262C5.25961 7.18992 4.62625 7.75181 4.62625 8.61249C4.62625 9.64262 5.40171 10.1555 6.53445 10.4542C7.54944 10.7218 7.75244 11.1142 7.75244 11.529C7.75244 11.8367 7.5535 12.3272 6.65625 12.3272C5.81989 12.3272 5.49103 11.9169 5.44637 11.3907H4.55317C4.60189 12.3674 5.26773 12.9159 6.04725 13.0987V14.0664H7.26524V13.1076C8.05694 12.9426 8.68624 12.4387 8.68624 11.5245C8.68624 10.258 7.69966 9.82546 6.77805 9.56235Z"
        stroke="#7F7FB7" />
    <path d="M12.286 8.10019H17.8733L19.5905 9.88291V14.0867H12.286V8.10019Z" stroke="#7F7FB7" />
    <line x1="11.9423" y1="10.5251" x2="16.8312" y2="10.5251" stroke="#7F7FB7" />
    <line x1="16.5164" y1="10.5851" x2="16.5164" y2="13.5581" stroke="#7F7FB7" />
</svg>
