<svg width="91" height="91" viewBox="0 0 91 91" fill="none" xmlns="http://www.w3.org/2000/svg">
<rect x="0.0688477" y="0.435303" width="90" height="90" rx="5" fill="#F2F9FF"/>
<g clip-path="url(#clip0)">
<path d="M61.0688 45.4354V40.1021C61.0688 37.8929 59.2779 36.1021 57.0688 36.1021H47.3085C46.8062 36.1021 46.4015 36.5131 46.4022 37.0155C46.403 37.6268 46.5003 38.2156 46.6783 38.7688H27.7883C26.2941 38.7688 25.0417 39.9916 25.0693 41.4856C25.096 42.9345 26.2802 44.1021 27.7355 44.1021H30.4022V60.1021H54.4022H57.0688C59.2782 60.1021 61.0688 58.3114 61.0688 56.1021H63.8969C64.5441 56.1021 65.0688 55.5774 65.0688 54.9303V46.6073C65.0688 45.9601 64.5441 45.4354 63.8969 45.4354H61.0688Z" fill="#FFDCC8"/>
<path d="M50.8584 25.4353H33.9462C31.9921 25.4353 30.4023 27.0251 30.4023 28.9791V61.8914C30.4023 63.8455 31.9922 65.4352 33.9462 65.4352H50.8584C52.8125 65.4352 54.4023 63.8455 54.4023 61.8914V28.9791C54.4023 27.0251 52.8125 25.4353 50.8584 25.4353V25.4353Z" fill="#00366D"/>
<path d="M54.4023 61.8915V28.9791C54.4023 27.0251 52.8125 25.4353 50.8584 25.4353H42.4023V65.4353H50.8584C52.8125 65.4353 54.4023 63.8455 54.4023 61.8915Z" fill="#01223C"/>
<path d="M50.72 27.7791H49.3815V29.1176C49.3815 31.1512 47.7329 32.7998 45.6992 32.7998H39.1055C37.0718 32.7998 35.4232 31.1512 35.4232 29.1176V27.7791H34.0847C33.3466 27.7791 32.7461 28.3795 32.7461 29.1176V61.753C32.7461 62.491 33.3466 63.0915 34.0847 63.0915H50.72C51.458 63.0915 52.0586 62.491 52.0586 61.753V29.1176C52.0586 28.3795 51.458 27.7791 50.72 27.7791Z" fill="#5FF9FE"/>
<path d="M52.0586 61.753V29.1176C52.0586 28.3795 51.458 27.7791 50.72 27.7791H49.3815V29.1176C49.3815 31.1512 47.7329 32.7998 45.6992 32.7998H42.4023V63.0916H50.72C51.458 63.0916 52.0586 62.4911 52.0586 61.753Z" fill="#00DDE7"/>
<path d="M30.402 60.1018C31.8747 60.1018 33.0686 58.9079 33.0686 57.4352C33.0686 55.9624 31.8747 54.7686 30.402 54.7686C28.9292 54.7686 27.7354 55.9624 27.7354 57.4352C27.7354 58.9079 28.9292 60.1018 30.402 60.1018Z" fill="#FFC5BB"/>
<path d="M33.7353 49.4353C35.2073 49.4353 36.402 48.2406 36.402 46.7687C36.402 45.2967 35.2073 44.1021 33.7353 44.1021H28.402C26.93 44.1021 25.7354 45.2967 25.7354 46.7687C25.7354 48.2406 26.93 49.4353 28.402 49.4353H29.7354C28.2633 49.4353 27.0687 50.63 27.0687 52.102C27.0687 53.5739 28.2634 54.7686 29.7354 54.7686H33.7354C35.2074 54.7686 36.4021 53.5739 36.4021 52.102C36.4021 50.63 35.2073 49.4353 33.7353 49.4353Z" fill="#FFC5BB"/>
<path d="M44.9125 60.4146H39.8916C39.2444 60.4146 38.7197 59.8899 38.7197 59.2427C38.7197 58.5955 39.2444 58.0708 39.8916 58.0708H44.9125C45.5596 58.0708 46.0843 58.5955 46.0843 59.2427C46.0843 59.8899 45.5596 60.4146 44.9125 60.4146Z" fill="#00DDE7"/>
<path d="M46.0846 59.2427C46.0846 58.5955 45.5599 58.0708 44.9127 58.0708H42.4023V60.4146H44.9127C45.5599 60.4146 46.0846 59.8899 46.0846 59.2427Z" fill="#00BDCD"/>
<path d="M61.0685 43.7167V40.1021C61.0685 37.8929 59.2777 36.1021 57.0685 36.1021H47.3082C46.8078 36.1021 46.4019 36.508 46.4019 37.0085C46.4019 40.1847 48.9859 42.7688 52.1622 42.7688H54.4018V60.1021H57.0685C59.2779 60.1021 61.0685 58.3114 61.0685 56.1021H63.8967C64.5438 56.1021 65.0685 55.5774 65.0685 54.9303V44.8885C65.0685 44.2413 64.5438 43.7167 63.8967 43.7167H61.0685Z" fill="#FFC5BB"/>
<path d="M33.7355 49.4353H29.7355C28.2635 49.4353 27.0688 50.63 27.0688 52.1019C27.0688 53.5739 28.2635 54.7686 29.7355 54.7686H33.7355C35.2075 54.7686 36.4022 53.5739 36.4022 52.1019C36.4022 50.63 35.2075 49.4353 33.7355 49.4353Z" fill="#FFADAD"/>
<path d="M54.4019 49.4353V60.1019H57.0685C59.2779 60.1019 61.0685 58.3112 61.0685 56.1019H63.8966C64.5438 56.1019 65.0685 55.5773 65.0685 54.9301V49.4353H54.4019Z" fill="#FFADAD"/>
</g>
<path d="M52.7354 32.9978C57.7404 32.9978 61.7979 28.9404 61.7979 23.9353C61.7979 18.9302 57.7404 14.8728 52.7354 14.8728C47.7303 14.8728 43.6729 18.9302 43.6729 23.9353C43.6729 28.9404 47.7303 32.9978 52.7354 32.9978Z" fill="#FFD754"/>
<path d="M52.7354 31.1228C56.7049 31.1228 59.9229 27.9048 59.9229 23.9353C59.9229 19.9658 56.7049 16.7478 52.7354 16.7478C48.7658 16.7478 45.5479 19.9658 45.5479 23.9353C45.5479 27.9048 48.7658 31.1228 52.7354 31.1228Z" fill="#EDB90C"/>
<path d="M48.6729 24.2478C48.59 24.2478 48.5105 24.2807 48.4519 24.3393C48.3933 24.3979 48.3604 24.4774 48.3604 24.5603C48.3604 24.6432 48.3933 24.7227 48.4519 24.7813C48.5105 24.8399 48.59 24.8728 48.6729 24.8728H49.9229V27.0603C49.9229 27.1432 49.9558 27.2227 50.0144 27.2813C50.073 27.3399 50.1525 27.3728 50.2354 27.3728C50.3182 27.3728 50.3977 27.3399 50.4563 27.2813C50.5149 27.2227 50.5479 27.1432 50.5479 27.0603V24.8728H53.0852L54.9914 27.2556C55.0319 27.3062 55.087 27.3429 55.1493 27.3607C55.2115 27.3786 55.2778 27.3766 55.3388 27.3552C55.3999 27.3337 55.4529 27.2938 55.4903 27.241C55.5277 27.1882 55.5479 27.1251 55.5479 27.0603V24.8728H56.7979C56.8807 24.8728 56.9602 24.8399 57.0188 24.7813C57.0774 24.7227 57.1104 24.6432 57.1104 24.5603C57.1104 24.4774 57.0774 24.3979 57.0188 24.3393C56.9602 24.2807 56.8807 24.2478 56.7979 24.2478H55.5479V23.6228H56.7979C56.8807 23.6228 56.9602 23.5899 57.0188 23.5313C57.0774 23.4727 57.1104 23.3932 57.1104 23.3103C57.1104 23.2274 57.0774 23.1479 57.0188 23.0893C56.9602 23.0307 56.8807 22.9978 56.7979 22.9978H55.5479V20.8103C55.5479 20.7274 55.5149 20.6479 55.4563 20.5893C55.3977 20.5307 55.3182 20.4978 55.2354 20.4978C55.1525 20.4978 55.073 20.5307 55.0144 20.5893C54.9558 20.6479 54.9229 20.7274 54.9229 20.8103V22.9978H52.3855L50.4793 20.615C50.4388 20.5644 50.3837 20.5277 50.3214 20.5099C50.2592 20.4921 50.1929 20.494 50.1319 20.5154C50.0708 20.5369 50.0178 20.5768 49.9804 20.6296C49.943 20.6824 49.9229 20.7456 49.9229 20.8103V22.9978H48.6729C48.59 22.9978 48.5105 23.0307 48.4519 23.0893C48.3933 23.1479 48.3604 23.2274 48.3604 23.3103C48.3604 23.3932 48.3933 23.4727 48.4519 23.5313C48.5105 23.5899 48.59 23.6228 48.6729 23.6228H49.9229V24.2478H48.6729ZM54.9229 26.1695L53.8855 24.8728H54.9229V26.1695ZM54.9229 23.6228V24.2478H53.3855L52.8855 23.6228H54.9229ZM50.5479 21.7012L51.5852 22.9978H50.5479V21.7012ZM50.5479 23.6228H52.0852L52.5852 24.2478H50.5479V23.6228Z" fill="#FBE36A"/>
<path d="M45.6566 22.9979C45.611 22.9979 45.5659 22.988 45.5245 22.9688C45.4831 22.9495 45.4464 22.9214 45.4171 22.8865C45.3877 22.8516 45.3663 22.8106 45.3545 22.7665C45.3426 22.7225 45.3406 22.6763 45.3485 22.6314C45.6172 21.1164 46.3447 19.7206 47.4327 18.6326C48.5207 17.5447 49.9165 16.8171 51.4315 16.5484C51.5131 16.5341 51.5971 16.5528 51.6649 16.6004C51.7328 16.648 51.7789 16.7206 51.7933 16.8022C51.8076 16.8839 51.7889 16.9678 51.7413 17.0357C51.6937 17.1035 51.6211 17.1497 51.5394 17.164C50.1509 17.4103 48.8715 18.0771 47.8744 19.0743C46.8772 20.0715 46.2104 21.3508 45.9641 22.7394C45.9514 22.8117 45.9136 22.8773 45.8574 22.9246C45.8012 22.9719 45.7301 22.9978 45.6566 22.9979Z" fill="#FBEFB2"/>
<path d="M53.985 31.3272C53.9067 31.3272 53.8313 31.2979 53.7737 31.245C53.716 31.1921 53.6803 31.1195 53.6735 31.0416C53.6668 30.9636 53.6895 30.886 53.7373 30.824C53.785 30.762 53.8543 30.7202 53.9314 30.7068C55.3199 30.4605 56.5993 29.7937 57.5965 28.7965C58.5936 27.7993 59.2605 26.52 59.5068 25.1314C59.5136 25.0908 59.5284 25.0518 59.5503 25.0169C59.5722 24.982 59.6009 24.9518 59.6345 24.928C59.6682 24.9041 59.7062 24.8872 59.7465 24.8782C59.7867 24.8692 59.8283 24.8682 59.8689 24.8753C59.9096 24.8824 59.9484 24.8975 59.9831 24.9197C60.0179 24.9419 60.0479 24.9707 60.0715 25.0046C60.095 25.0384 60.1116 25.0766 60.1204 25.1169C60.1291 25.1572 60.1298 25.1988 60.1224 25.2394C59.8536 26.7543 59.1261 28.1502 58.0381 29.2382C56.9502 30.3261 55.5543 31.0537 54.0394 31.3224C54.0214 31.3256 54.0032 31.3272 53.985 31.3272Z" fill="#FBEFB2"/>
<path d="M45.5479 24.2478C45.7204 24.2478 45.8604 24.1079 45.8604 23.9353C45.8604 23.7627 45.7204 23.6228 45.5479 23.6228C45.3753 23.6228 45.2354 23.7627 45.2354 23.9353C45.2354 24.1079 45.3753 24.2478 45.5479 24.2478Z" fill="#FBEFB2"/>
<path d="M52.7354 17.0603C52.9079 17.0603 53.0479 16.9204 53.0479 16.7478C53.0479 16.5752 52.9079 16.4353 52.7354 16.4353C52.5628 16.4353 52.4229 16.5752 52.4229 16.7478C52.4229 16.9204 52.5628 17.0603 52.7354 17.0603Z" fill="#FBEFB2"/>
<path d="M59.9229 24.2478C60.0954 24.2478 60.2354 24.1079 60.2354 23.9353C60.2354 23.7627 60.0954 23.6228 59.9229 23.6228C59.7503 23.6228 59.6104 23.7627 59.6104 23.9353C59.6104 24.1079 59.7503 24.2478 59.9229 24.2478Z" fill="#FBEFB2"/>
<path d="M52.7354 31.4353C52.9079 31.4353 53.0479 31.2954 53.0479 31.1228C53.0479 30.9502 52.9079 30.8103 52.7354 30.8103C52.5628 30.8103 52.4229 30.9502 52.4229 31.1228C52.4229 31.2954 52.5628 31.4353 52.7354 31.4353Z" fill="#FBEFB2"/>
<defs>
<clipPath id="clip0">
<rect width="40" height="40" fill="white" transform="translate(25.0688 25.4353)"/>
</clipPath>
</defs>
</svg>
