<svg width="100" height="100" viewBox="0 0 140 140" fill="none" xmlns="http://www.w3.org/2000/svg">
                                                <path d="M93.333 23.333H46.6663C43.4447 23.333 40.833 25.9447 40.833 29.1663V110.833C40.833 114.055 43.4447 116.666 46.6663 116.666H93.333C96.5547 116.666 99.1663 114.055 99.1663 110.833V29.1663C99.1663 25.9447 96.5547 23.333 93.333 23.333Z" stroke="#000070" stroke-width="2.75" stroke-linecap="round" stroke-linejoin="round"/>
                                                <path d="M64.167 29.167H75.8337" stroke="#000070" stroke-width="2.75" stroke-linecap="round" stroke-linejoin="round"/>
                                                <path d="M70 104.167V104.225" stroke="#000070" stroke-width="2.75" stroke-linecap="round" stroke-linejoin="round"/>
                                                <path d="M72.54 73.3727C74.5077 75.3406 73.0948 78.7055 70.331 78.7055C67.5689 78.7055 66.1525 75.3422 68.1221 73.3727C69.3427 72.1516 71.319 72.1514 72.54 73.3727ZM62.673 67.9238C62.0224 68.5744 62.0224 69.6293 62.673 70.2799C63.3239 70.9307 64.3785 70.9307 65.0294 70.2799C67.9592 67.3498 72.7023 67.3496 75.6324 70.2799C75.9579 70.6054 76.384 70.7679 76.8105 70.7679C78.2815 70.7679 79.0415 68.9764 77.9887 67.9236C73.7567 63.6914 66.9062 63.6908 62.673 67.9238ZM84.1742 61.7385C76.5229 54.0875 64.1401 54.0868 56.488 61.7385C55.8373 62.3891 55.8373 63.444 56.488 64.0946C57.1388 64.7453 58.1935 64.7453 58.8443 64.0946C65.1781 57.7607 75.4839 57.7611 81.8176 64.0946C82.4687 64.7455 83.5231 64.7453 84.174 64.0946C84.8248 63.444 84.8248 62.3891 84.1742 61.7385Z" fill="#000070"/>
                                            </svg>