<svg width="16" height="17" viewBox="0 0 16 17" fill="none" xmlns="http://www.w3.org/2000/svg">
<path d="M0.64914 7.35294H15.3197C15.665 7.35294 15.9455 7.0818 15.9662 6.73766C16.0389 6.51084 15.9896 6.25534 15.8105 6.07545L10.9445 1.18967C10.69 0.934172 10.2798 0.934172 10.0253 1.18967C9.77085 1.44517 9.77085 1.8571 10.0253 2.1126L13.9461 6.04937H0.64914C0.290815 6.04937 0 6.34137 0 6.70116C0 7.06094 0.290815 7.35294 0.64914 7.35294Z" fill="white"/>
<path d="M15.3509 10.6465H0.68029C0.334947 10.6465 0.0545189 10.9176 0.0337465 11.2618C-0.0389572 11.4886 0.0103774 11.7441 0.18954 11.924L5.05549 16.8098C5.18272 16.9375 5.3489 17.0001 5.51508 17.0001C5.68126 17.0001 5.84744 16.9375 5.97468 16.8098C6.22914 16.5543 6.22914 16.1423 5.97468 15.8868L2.05127 11.9501H15.3483C15.7066 11.9501 15.9974 11.6581 15.9974 11.2983C15.9974 10.9385 15.7092 10.6465 15.3509 10.6465Z" fill="white"/>
</svg>
