<svg width="17" height="16" viewBox="0 0 17 16" fill="none" xmlns="http://www.w3.org/2000/svg">
<path d="M10.6453 0.651093L10.6453 15.3217C10.6453 15.667 10.9165 15.9474 11.2606 15.9682C11.4875 16.0409 11.743 15.9916 11.9228 15.8124L16.8086 10.9465C17.0641 10.692 17.0641 10.2817 16.8086 10.0273C16.5531 9.77281 16.1412 9.77281 15.8857 10.0273L11.9489 13.9481L11.9489 0.651093C11.9489 0.292768 11.6569 0.00195289 11.2971 0.00195288C10.9373 0.00195286 10.6453 0.292768 10.6453 0.651093Z" fill="white"/>
<path d="M7.35205 15.3528L7.35205 0.682243C7.35205 0.336901 7.08091 0.0564721 6.73677 0.0356996C6.50995 -0.0370041 6.25445 0.0123305 6.07455 0.191493L1.18878 5.05745C1.06103 5.18468 0.998457 5.35086 0.998457 5.51704C0.998457 5.68322 1.06103 5.8494 1.18878 5.97663C1.44428 6.23109 1.8562 6.23109 2.1117 5.97663L6.04848 2.05323L6.04848 15.3502C6.04848 15.7085 6.34048 15.9993 6.70027 15.9993C7.06005 15.9993 7.35205 15.7111 7.35205 15.3528Z" fill="white"/>
</svg>
