<svg width="24" height="22" viewBox="0 0 39 22" fill="none" xmlns="http://www.w3.org/2000/svg">
<path d="M38.5 4C38.5 5.925 36.925 7.5 35 7.5C34.685 7.5 34.3875 7.465 34.1075 7.3775L27.8775 13.59C27.965 13.87 28 14.185 28 14.5C28 16.425 26.425 18 24.5 18C22.575 18 21 16.425 21 14.5C21 14.185 21.035 13.87 21.1225 13.59L16.66 9.1275C16.38 9.215 16.065 9.25 15.75 9.25C15.435 9.25 15.12 9.215 14.84 9.1275L6.8775 17.1075C6.965 17.3875 7 17.685 7 18C7 19.925 5.425 21.5 3.5 21.5C1.575 21.5 0 19.925 0 18C0 16.075 1.575 14.5 3.5 14.5C3.815 14.5 4.1125 14.535 4.3925 14.6225L12.3725 6.66C12.285 6.38 12.25 6.065 12.25 5.75C12.25 3.825 13.825 2.25 15.75 2.25C17.675 2.25 19.25 3.825 19.25 5.75C19.25 6.065 19.215 6.38 19.1275 6.66L23.59 11.1225C23.87 11.035 24.185 11 24.5 11C24.815 11 25.13 11.035 25.41 11.1225L31.6225 4.8925C31.535 4.6125 31.5 4.315 31.5 4C31.5 2.075 33.075 0.5 35 0.5C36.925 0.5 38.5 2.075 38.5 4Z" fill="#000070"/>
</svg>
