<svg width="24" height="44" viewBox="0 0 26 49" fill="none" xmlns="http://www.w3.org/2000/svg">
<path d="M12.6562 40.0625C13.4329 40.0625 14.0625 39.4329 14.0625 38.6562C14.0625 37.8796 13.4329 37.25 12.6562 37.25C11.8796 37.25 11.25 37.8796 11.25 38.6562C11.25 39.4329 11.8796 40.0625 12.6562 40.0625Z" fill="#000070"/>
<path d="M4.21875 48.5H21.0938C23.4201 48.5 25.3125 46.6076 25.3125 44.2812V4.71875C25.3125 2.39244 23.4201 0.5 21.0938 0.5H4.21875C1.89244 0.5 0 2.39244 0 4.71875V44.2812C0 46.6076 1.89244 48.5 4.21875 48.5ZM9.84375 6.125H15.4688C16.246 6.125 16.875 6.75397 16.875 7.53125C16.875 8.30853 16.246 8.9375 15.4688 8.9375H9.84375C9.06647 8.9375 8.4375 8.30853 8.4375 7.53125C8.4375 6.75397 9.06647 6.125 9.84375 6.125ZM12.6562 34.4375C14.9826 34.4375 16.875 36.3299 16.875 38.6562C16.875 40.9826 14.9826 42.875 12.6562 42.875C10.3299 42.875 8.4375 40.9826 8.4375 38.6562C8.4375 36.3299 10.3299 34.4375 12.6562 34.4375Z" fill="#000070"/>
</svg>
