<svg width="44" height="44" viewBox="0 0 44 44" fill="none"
xmlns="http://www.w3.org/2000/svg">
<path d="M5.5 38.5H38.5" stroke="#2C3E50" stroke-width="1.83333"
    stroke-linecap="round" stroke-linejoin="round" />
<path
    d="M27.5 14.6667C27.5 16.1254 28.0795 17.5243 29.1109 18.5558C30.1424 19.5872 31.5413 20.1667 33 20.1667C34.4587 20.1667 35.8576 19.5872 36.8891 18.5558C37.9205 17.5243 38.5 16.1254 38.5 14.6667V12.8333H5.5L9.16667 5.5H34.8333L38.5 12.8333M5.5 12.8333V14.6667C5.5 16.1254 6.07946 17.5243 7.11091 18.5558C8.14236 19.5872 9.54131 20.1667 11 20.1667C12.4587 20.1667 13.8576 19.5872 14.8891 18.5558C15.9205 17.5243 16.5 16.1254 16.5 14.6667V12.8333H5.5ZM16.5 14.6667C16.5 16.1254 17.0795 17.5243 18.1109 18.5558C19.1424 19.5872 20.5413 20.1667 22 20.1667C23.4587 20.1667 24.8576 19.5872 25.8891 18.5558C26.9205 17.5243 27.5 16.1254 27.5 14.6667V12.8333L16.5 14.6667Z"
    stroke="#2C3E50" stroke-width="1.83333"
    stroke-linecap="round" stroke-linejoin="round" />
<path d="M9.16699 38.4999V19.8916" stroke="#2C3E50"
    stroke-width="1.83333" stroke-linecap="round"
    stroke-linejoin="round" />
<path d="M34.833 38.4999V19.8916" stroke="#2C3E50"
    stroke-width="1.83333" stroke-linecap="round"
    stroke-linejoin="round" />
<path
    d="M16.5 38.5V31.1667C16.5 30.1942 16.8863 29.2616 17.5739 28.5739C18.2616 27.8863 19.1942 27.5 20.1667 27.5H23.8333C24.8058 27.5 25.7384 27.8863 26.4261 28.5739C27.1137 29.2616 27.5 30.1942 27.5 31.1667V38.5"
    stroke="#2C3E50" stroke-width="1.83333"
    stroke-linecap="round" stroke-linejoin="round" />
</svg>