<svg width="40" height="41" viewBox="0 0 40 41" fill="none" xmlns="http://www.w3.org/2000/svg">
<path fill-rule="evenodd" clip-rule="evenodd" d="M18.8805 19.1224C20.3536 19.5143 23.5474 20.364 24.1047 18.1292C24.6757 15.8343 21.5468 15.1472 20.0251 14.8131C19.8575 14.7762 19.7093 14.7437 19.5878 14.7138L18.517 19.0276C18.6209 19.0533 18.7432 19.0859 18.8805 19.1224ZM17.2131 26.0676C18.978 26.5335 22.8245 27.549 23.4337 25.0895C24.0635 22.5813 20.3386 21.7396 18.5106 21.3265C18.3024 21.2795 18.1188 21.238 17.9691 21.2002L16.7876 25.9572C16.9096 25.9874 17.0528 26.0252 17.2131 26.0676ZM28.8171 17.8161C28.5295 19.7662 27.4543 20.71 26.0166 21.0413C27.9857 22.0664 28.9858 23.6415 28.0357 26.3604C26.848 29.748 24.0351 30.0356 20.2908 29.323L19.3844 32.967L17.1903 32.4169L18.0842 28.8292C17.5153 28.6855 16.934 28.5349 16.3402 28.373L15.44 31.9794L13.246 31.4356L14.1523 27.7854C13.6398 27.6542 13.1209 27.5167 12.5896 27.3854L9.73293 26.6729L10.8206 24.1596C10.8206 24.1596 12.4396 24.5915 12.4208 24.5603C13.0397 24.7103 13.3147 24.304 13.4272 24.0352L14.8587 18.2849C14.94 18.3037 15.015 18.3224 15.09 18.3412C15.0025 18.3037 14.9275 18.2849 14.865 18.2662L15.8901 14.1597C15.9151 13.6909 15.7526 13.1034 14.865 12.8846C14.865 12.8534 13.271 12.4846 13.271 12.4846L13.8523 10.1407L16.884 10.897L16.8778 10.9095C17.3341 11.022 17.8029 11.1283 18.278 11.2408L19.1781 7.63433L21.3722 8.18436L20.4908 11.7158C21.0784 11.8533 21.6722 11.9846 22.2473 12.1283L23.1224 8.62188L25.3165 9.16566L24.4226 12.7721C27.1918 13.7284 29.2171 15.1597 28.8171 17.8161ZM24.8351 1.26472C14.121 -1.40418 3.26937 5.11493 0.600214 15.828C-2.07519 26.5474 4.44454 37.398 15.1587 40.0669C25.879 42.742 36.7307 36.2229 39.3998 25.5036C42.0752 14.7905 35.5555 3.93361 24.8351 1.26472Z" fill="#FFBA50"/>
</svg>
