<svg width="44" height="44" viewBox="0 0 44 44" fill="none"
xmlns="http://www.w3.org/2000/svg">
<path d="M18.333 25.6667L38.4997 5.5" stroke="#2C3E50"
stroke-width="1.83333" stroke-linecap="round"
stroke-linejoin="round" />
<path
d="M38.5004 5.5L26.5837 38.5C26.5033 38.6755 26.3741 38.8243 26.2116 38.9285C26.0491 39.0328 25.8601 39.0883 25.667 39.0883C25.474 39.0883 25.2849 39.0328 25.1224 38.9285C24.96 38.8243 24.8308 38.6755 24.7504 38.5L18.3337 25.6667L5.50037 19.25C5.32485 19.1696 5.1761 19.0404 5.07182 18.8779C4.96754 18.7154 4.91211 18.5264 4.91211 18.3333C4.91211 18.1403 4.96754 17.9512 5.07182 17.7887C5.1761 17.6262 5.32485 17.4971 5.50037 17.4167L38.5004 5.5Z"
stroke="#2C3E50" stroke-width="1.83333"
stroke-linecap="round" stroke-linejoin="round" />
</svg>