<svg width="40" height="40" viewBox="0 0 40 40" fill="none"
    xmlns="http://www.w3.org/2000/svg">
    <path
        d="M25.7041 4.94272C25.3021 2.12506 22.8495 0 19.9995 0C18.1666 0 16.4259 0.884466 15.3436 2.36679C15.1225 2.66909 15.1887 3.09315 15.491 3.31422C15.7923 3.53449 16.2173 3.46914 16.438 3.16644C17.2664 2.0329 18.5976 1.356 19.9993 1.356C22.179 1.356 24.0542 2.98033 24.3616 5.134C24.4101 5.47225 24.7003 5.71636 25.0322 5.71636C25.0638 5.71636 25.0963 5.71397 25.1287 5.7096C25.4993 5.65657 25.757 5.31315 25.7041 4.94272Z"
        fill="#2C3E50" />
    <path
        d="M35.496 12.5325L33.4622 9.14259C33.3398 8.93821 33.1191 8.81348 32.8808 8.81348H30.9317C30.5575 8.81348 30.2538 9.11717 30.2538 9.49138C30.2538 9.86558 30.5575 10.1693 30.9317 10.1693H32.497L33.7174 12.2032H6.28145L7.50178 10.1693H8.2198C8.59401 10.1693 8.8977 9.86558 8.8977 9.49138C8.8977 9.11717 8.59401 8.81348 8.2198 8.81348H7.11805C6.8797 8.81348 6.65903 8.93821 6.53668 9.14259L4.50278 12.5325C4.37705 12.7422 4.37407 13.003 4.49424 13.2156C4.61441 13.4281 4.83965 13.5596 5.08415 13.5596H34.9147C35.1592 13.5596 35.3842 13.4281 35.5046 13.2156C35.625 13.003 35.6218 12.7418 35.496 12.5325Z"
        fill="#2C3E50" />
    <path
        d="M32.1171 6.28101C32.0222 6.12787 31.8706 6.01922 31.6955 5.97831L22.4534 3.8167C22.2784 3.77558 22.0941 3.80617 21.9411 3.90071C21.7886 3.99566 21.6797 4.1472 21.6388 4.32239L20.9418 7.30173C20.8564 7.6662 21.0829 8.03087 21.4475 8.11588C21.812 8.20129 22.1771 7.97486 22.2621 7.61019L22.8047 5.29127L30.7264 7.14422L29.4816 12.4663C29.3962 12.8308 29.6226 13.1955 29.9873 13.2805C30.0395 13.2926 30.0914 13.2983 30.1426 13.2983C30.4505 13.2983 30.7292 13.0874 30.8017 12.775L32.2009 6.79286C32.2423 6.61787 32.2121 6.43355 32.1171 6.28101Z"
        fill="#2C3E50" />
    <path
        d="M20.3581 7.88385L19.7404 2.65909C19.7193 2.48053 19.6281 2.31746 19.4867 2.20623C19.3453 2.095 19.1667 2.04415 18.9874 2.06521L7.64803 3.40551C7.27641 3.44961 7.01065 3.78647 7.05455 4.15849L8.0844 12.8727C8.12532 13.2177 8.41789 13.4713 8.75694 13.4713C8.78336 13.4713 8.81057 13.4695 8.83758 13.4665C9.20901 13.4224 9.47476 13.0856 9.43107 12.7136L8.48066 4.67213L18.4736 3.49112L19.0114 8.04255C19.0555 8.41437 19.3908 8.67854 19.7644 8.63643C20.136 8.59274 20.4018 8.25568 20.3581 7.88385Z"
        fill="#2C3E50" />
    <path
        d="M25.7199 12.6237L24.3742 7.0277C24.3321 6.85311 24.2223 6.70196 24.0692 6.60801C23.916 6.51486 23.7323 6.48566 23.5565 6.52737L12.6349 9.15396C12.2708 9.24135 12.0467 9.60761 12.1341 9.97169L12.8067 12.7687C12.8941 13.1332 13.2603 13.3574 13.6242 13.2694C13.9883 13.182 14.2123 12.8158 14.1249 12.4517L13.6107 10.3137L23.2141 8.00453L24.4013 12.9411C24.4757 13.2519 24.7538 13.4605 25.0599 13.4605C25.1125 13.4605 25.1658 13.4543 25.2192 13.4414C25.5833 13.3538 25.8073 12.9878 25.7199 12.6237Z"
        fill="#2C3E50" />
    <path
        d="M35.5928 12.8463C35.5741 12.486 35.2766 12.2031 34.9155 12.2031H5.08497C4.72388 12.2031 4.42634 12.4858 4.40767 12.8463L3.05167 39.2869C3.04214 39.4724 3.10928 39.6539 3.23719 39.7886C3.3653 39.9231 3.54287 39.9995 3.72878 39.9995H36.2711C36.4568 39.9995 36.6346 39.9233 36.7633 39.7886C36.891 39.6539 36.9581 39.4726 36.9488 39.2869L35.5928 12.8463ZM4.44223 38.6435L5.72871 13.5589H34.271L35.5575 38.6435H4.44223Z"
        fill="#2C3E50" />
    <path
        d="M25.0847 14.915C23.9631 14.915 23.0508 15.8273 23.0508 16.9489C23.0508 18.0705 23.9631 18.9828 25.0847 18.9828C26.2063 18.9828 27.1186 18.0705 27.1186 16.9489C27.1186 15.8273 26.2063 14.915 25.0847 14.915ZM25.0847 17.627C24.7107 17.627 24.4068 17.3229 24.4068 16.9491C24.4068 16.5753 24.7109 16.2712 25.0847 16.2712C25.4585 16.2712 25.7626 16.5753 25.7626 16.9491C25.7626 17.3229 25.4585 17.627 25.0847 17.627Z"
        fill="#2C3E50" />
    <path
        d="M14.9148 14.915C13.7931 14.915 12.8809 15.8273 12.8809 16.9489C12.8809 18.0705 13.7931 18.9828 14.9148 18.9828C16.0364 18.9828 16.9486 18.0705 16.9486 16.9489C16.9486 15.8273 16.0364 14.915 14.9148 14.915ZM14.9148 17.627C14.5409 17.627 14.2369 17.3229 14.2369 16.9491C14.2369 16.5753 14.5409 16.2712 14.9148 16.2712C15.2886 16.2712 15.5927 16.5753 15.5927 16.9491C15.5927 17.3229 15.2886 17.627 14.9148 17.627Z"
        fill="#2C3E50" />
    <path
        d="M25.0847 16.9492H25.0324C24.6582 16.9492 24.3545 17.2529 24.3545 17.6271C24.3545 17.7197 24.3728 17.8081 24.4068 17.8885V21.3559C24.4068 23.7856 22.4299 25.7627 19.9999 25.7627C17.57 25.7627 15.5931 23.7858 15.5931 21.3559V17.6273C15.5931 17.2531 15.2894 16.9494 14.9152 16.9494C14.541 16.9494 14.2373 17.2531 14.2373 17.6273V21.3561C14.2373 24.5336 16.8224 27.1187 19.9999 27.1187C23.1775 27.1187 25.7626 24.5336 25.7626 21.3561V17.6273C25.7626 17.2531 25.4589 16.9492 25.0847 16.9492Z"
        fill="#2C3E50" />
</svg>