<?xml version="1.0" encoding="iso-8859-1"?>
<!-- Generator: Adobe Illustrator 19.0.0, SVG Export Plug-In . SVG Version: 6.00 Build 0)  -->
<svg version="1.1" id="Capa_1" xmlns="http://www.w3.org/2000/svg" xmlns:xlink="http://www.w3.org/1999/xlink" x="0px" y="0px"
	 viewBox="0 0 482.256 482.256" style="enable-background:new 0 0 482.256 482.256;" xml:space="preserve">
<linearGradient id="SVGID_1_" gradientUnits="userSpaceOnUse" x1="-17.747" y1="621.03" x2="-17.747" y2="560.231" gradientTransform="matrix(8 0 0 -8 447.104 4961.3042)">
	<stop  offset="0" style="stop-color:#FFF33B"/>
	<stop  offset="0.04" style="stop-color:#FEE72E"/>
	<stop  offset="0.117" style="stop-color:#FED51B"/>
	<stop  offset="0.196" style="stop-color:#FDCA10"/>
	<stop  offset="0.281" style="stop-color:#FDC70C"/>
	<stop  offset="0.669" style="stop-color:#F3903F"/>
	<stop  offset="0.888" style="stop-color:#ED683C"/>
	<stop  offset="1" style="stop-color:#E93E3A"/>
</linearGradient>
<path style="fill:url(#SVGID_1_);" d="M345.128,266.256c4.418,0,8-3.582,8-8v-48c0-4.418-3.582-8-8-8h-80c-4.418,0-8,3.582-8,8v112
	c0,4.418,3.582,8,8,8s8-3.582,8-8v-104h64v40C337.128,262.674,340.71,266.256,345.128,266.256z"/>
<g>
	
		<linearGradient id="SVGID_2_" gradientUnits="userSpaceOnUse" x1="-1.747" y1="621.03" x2="-1.747" y2="560.231" gradientTransform="matrix(8 0 0 -8 447.104 4961.3042)">
		<stop  offset="0" style="stop-color:#FFF33B"/>
		<stop  offset="0.04" style="stop-color:#FEE72E"/>
		<stop  offset="0.117" style="stop-color:#FED51B"/>
		<stop  offset="0.196" style="stop-color:#FDCA10"/>
		<stop  offset="0.281" style="stop-color:#FDC70C"/>
		<stop  offset="0.669" style="stop-color:#F3903F"/>
		<stop  offset="0.888" style="stop-color:#ED683C"/>
		<stop  offset="1" style="stop-color:#E93E3A"/>
	</linearGradient>
	<path style="fill:url(#SVGID_2_);" d="M473.128,90.256h-80c-4.418,0-8,3.582-8,8v160c0,4.418,3.582,8,8,8s8-3.582,8-8v-152h64v184
		c0,4.418,3.582,8,8,8s8-3.582,8-8v-192C481.128,93.838,477.546,90.256,473.128,90.256z"/>
	
		<linearGradient id="SVGID_3_" gradientUnits="userSpaceOnUse" x1="-29.409" y1="621.03" x2="-29.409" y2="560.231" gradientTransform="matrix(8 0 0 -8 447.104 4961.3042)">
		<stop  offset="0" style="stop-color:#FFF33B"/>
		<stop  offset="0.04" style="stop-color:#FEE72E"/>
		<stop  offset="0.117" style="stop-color:#FED51B"/>
		<stop  offset="0.196" style="stop-color:#FDCA10"/>
		<stop  offset="0.281" style="stop-color:#FDC70C"/>
		<stop  offset="0.669" style="stop-color:#F3903F"/>
		<stop  offset="0.888" style="stop-color:#ED683C"/>
		<stop  offset="1" style="stop-color:#E93E3A"/>
	</linearGradient>
	<path style="fill:url(#SVGID_3_);" d="M361.216,33.896l14.288,39.2l15.032-5.464L365.928,0l-67.672,24.656l5.464,15.032
		l44.352-16.144c-48.688,131.768-174.47,219.117-314.944,218.712v16C178.412,258.667,308.9,169.434,361.216,33.896z"/>
	
		<linearGradient id="SVGID_4_" gradientUnits="userSpaceOnUse" x1="-38.747" y1="621.03" x2="-38.747" y2="560.231" gradientTransform="matrix(8 0 0 -8 447.104 4961.3042)">
		<stop  offset="0" style="stop-color:#FFF33B"/>
		<stop  offset="0.04" style="stop-color:#FEE72E"/>
		<stop  offset="0.117" style="stop-color:#FED51B"/>
		<stop  offset="0.196" style="stop-color:#FDCA10"/>
		<stop  offset="0.281" style="stop-color:#FDC70C"/>
		<stop  offset="0.669" style="stop-color:#F3903F"/>
		<stop  offset="0.888" style="stop-color:#ED683C"/>
		<stop  offset="1" style="stop-color:#E93E3A"/>
	</linearGradient>
	<path style="fill:url(#SVGID_4_);" d="M265.128,426.256c-4.418,0-8,3.582-8,8v32h-32v-200c0-4.418-3.582-8-8-8h-80
		c-4.418,0-8,3.582-8,8v200h-32v-152c0-4.418-3.582-8-8-8h-80c-4.418,0-8,3.582-8,8v160c0,4.418,3.582,8,8,8h256
		c4.418,0,8-3.582,8-8v-40C273.128,429.838,269.546,426.256,265.128,426.256z M17.128,466.256v-144h64v144H17.128z M145.128,466.256
		v-192h64v192H145.128z"/>
	
		<linearGradient id="SVGID_5_" gradientUnits="userSpaceOnUse" x1="-8.747" y1="621.03" x2="-8.747" y2="560.231" gradientTransform="matrix(8 0 0 -8 447.104 4961.3042)">
		<stop  offset="0" style="stop-color:#FFF33B"/>
		<stop  offset="0.04" style="stop-color:#FEE72E"/>
		<stop  offset="0.117" style="stop-color:#FED51B"/>
		<stop  offset="0.196" style="stop-color:#FDCA10"/>
		<stop  offset="0.281" style="stop-color:#FDC70C"/>
		<stop  offset="0.669" style="stop-color:#F3903F"/>
		<stop  offset="0.888" style="stop-color:#ED683C"/>
		<stop  offset="1" style="stop-color:#E93E3A"/>
	</linearGradient>
	<path style="fill:url(#SVGID_5_);" d="M377.128,274.256c-57.438,0-104,46.562-104,104s46.562,104,104,104s104-46.562,104-104
		C481.062,320.846,434.538,274.322,377.128,274.256z M377.128,466.256c-48.601,0-88-39.399-88-88s39.399-88,88-88s88,39.399,88,88
		C465.071,426.833,425.705,466.199,377.128,466.256z"/>
	
		<linearGradient id="SVGID_6_" gradientUnits="userSpaceOnUse" x1="-8.747" y1="621.03" x2="-8.747" y2="560.231" gradientTransform="matrix(8 0 0 -8 447.104 4961.3042)">
		<stop  offset="0" style="stop-color:#FFF33B"/>
		<stop  offset="0.04" style="stop-color:#FEE72E"/>
		<stop  offset="0.117" style="stop-color:#FED51B"/>
		<stop  offset="0.196" style="stop-color:#FDCA10"/>
		<stop  offset="0.281" style="stop-color:#FDC70C"/>
		<stop  offset="0.669" style="stop-color:#F3903F"/>
		<stop  offset="0.888" style="stop-color:#ED683C"/>
		<stop  offset="1" style="stop-color:#E93E3A"/>
	</linearGradient>
	<path style="fill:url(#SVGID_6_);" d="M401.128,322.256h-8v-16h-16v16h-8v-16h-16v16h-24v16h16v80h-16v16h24v16h16v-16h8v16h16v-16
		h8c13.255,0,24-10.745,24-24v-16c-0.021-5.923-2.245-11.627-6.24-16c3.995-4.373,6.219-10.077,6.24-16v-16
		C425.128,333.001,414.383,322.256,401.128,322.256z M361.128,338.256h40c4.418,0,8,3.582,8,8v16c0,4.418-3.582,8-8,8h-40V338.256z
		 M409.128,410.256c0,4.418-3.582,8-8,8h-40v-32h40c4.418,0,8,3.582,8,8V410.256z"/>
</g>
<g>
</g>
<g>
</g>
<g>
</g>
<g>
</g>
<g>
</g>
<g>
</g>
<g>
</g>
<g>
</g>
<g>
</g>
<g>
</g>
<g>
</g>
<g>
</g>
<g>
</g>
<g>
</g>
<g>
</g>
</svg>
