<svg width="91" height="91" viewBox="0 0 91 91" fill="none" xmlns="http://www.w3.org/2000/svg">
<rect x="0.0688477" y="0.911865" width="90" height="90" rx="5" fill="#F2F9FF"/>
<g clip-path="url(#clip0)">
<path d="M60.3249 62.588H29.8118C28.1855 62.588 26.8672 61.2697 26.8672 59.6434V34.2356C26.8672 32.6094 28.1855 31.291 29.8118 31.291H60.3249C61.9512 31.291 63.2695 32.6094 63.2695 34.2356V59.6434C63.2695 61.2697 61.9512 62.588 60.3249 62.588Z" fill="url(#paint0_linear)"/>
<path d="M59.6443 61.8901H30.4921C28.9383 61.8901 27.6787 60.6305 27.6787 59.0768V34.8023C27.6787 33.2485 28.9382 31.9889 30.4921 31.9889H59.6442C61.1979 31.9889 62.4575 33.2484 62.4575 34.8023V59.0769C62.4576 60.6306 61.198 61.8901 59.6443 61.8901Z" fill="url(#paint1_linear)"/>
<path d="M26.8672 49.7406H63.2695V40.0991C63.2695 38.8821 62.2831 37.8956 61.0661 37.8956H29.0706C27.8537 37.8956 26.8672 38.8821 26.8672 40.0991V49.7406Z" fill="url(#paint2_linear)"/>
<path d="M26.8672 46.1146V59.6436C26.8672 61.2698 28.1855 62.5882 29.8119 62.5882H60.3249C61.9512 62.5882 63.2695 61.2699 63.2695 59.6436V46.1146C63.2695 45.1102 62.4552 44.2959 61.4508 44.2959H28.6859C27.6815 44.2959 26.8672 45.1101 26.8672 46.1146Z" fill="url(#paint3_linear)"/>
<path d="M57.7773 39.1366V62.5882H60.3246C61.9509 62.5882 63.2692 61.2699 63.2692 59.6436V44.6285L57.7773 39.1366Z" fill="url(#paint4_linear)"/>
<path d="M55.2947 65.8897L29.741 62.9219C28.1029 62.7316 26.8672 61.3442 26.8672 59.695V34.0161C26.8672 34.568 27.2807 35.0322 27.8288 35.0959L56.0441 38.3729C57.6823 38.5632 58.918 39.9506 58.918 41.5998V62.6629C58.918 64.6055 57.2243 66.1139 55.2947 65.8897Z" fill="url(#paint5_linear)"/>
<path d="M55.2947 60.7606L29.741 57.7928C28.1029 57.6025 26.8672 56.2151 26.8672 54.5659V59.6951C26.8672 61.3443 28.1029 62.7318 29.741 62.922L55.2947 65.8898C57.2243 66.114 58.918 64.6056 58.918 62.663V57.5337C58.918 59.4764 57.2243 60.9847 55.2947 60.7606Z" fill="url(#paint6_linear)"/>
<path d="M29.1578 38.0186C29.1364 38.0186 29.1146 38.0173 29.0928 38.015L27.9235 37.8864C27.6005 37.8509 27.3674 37.5604 27.403 37.2375C27.4385 36.9146 27.7292 36.6818 28.0519 36.717L29.2213 36.8456C29.5442 36.8812 29.7773 37.1716 29.7417 37.4945C29.7086 37.7957 29.4538 38.0186 29.1578 38.0186Z" fill="url(#paint7_linear)"/>
<path d="M53.1869 63.9517C53.1622 63.9517 53.1371 63.9501 53.1119 63.947L50.8392 63.658C50.517 63.617 50.2889 63.3225 50.3299 63.0002C50.3709 62.678 50.6653 62.4512 50.9877 62.4909L53.2604 62.7799C53.5826 62.8208 53.8108 63.1153 53.7697 63.4377C53.7318 63.7347 53.4787 63.9517 53.1869 63.9517ZM55.4239 63.6606C55.2033 63.6606 54.9917 63.5358 54.8914 63.3228C54.7529 63.029 54.8789 62.6784 55.1728 62.5401C55.7696 62.2588 56.2185 61.7924 56.4043 61.2602C56.5114 60.9537 56.8471 60.792 57.1536 60.8988C57.4603 61.0059 57.6221 61.3414 57.515 61.6481C57.2215 62.4886 56.5678 63.1834 55.6742 63.6043C55.5932 63.6424 55.508 63.6606 55.4239 63.6606ZM48.6415 63.3738C48.6168 63.3738 48.5917 63.3721 48.5665 63.369L46.2938 63.08C45.9716 63.0391 45.7434 62.7445 45.7845 62.4222C45.8255 62.1 46.12 61.8731 46.4423 61.9129L48.715 62.2019C49.0372 62.2428 49.2654 62.5373 49.2243 62.8597C49.1864 63.1566 48.9332 63.3738 48.6415 63.3738ZM44.0961 62.7957C44.0714 62.7957 44.0464 62.7941 44.0211 62.7909L41.7484 62.502C41.4262 62.461 41.198 62.1665 41.2391 61.8441C41.2801 61.522 41.5746 61.294 41.8969 61.3348L44.1696 61.6238C44.4918 61.6648 44.72 61.9593 44.6789 62.2816C44.641 62.5786 44.3878 62.7957 44.0961 62.7957ZM39.5506 62.2177C39.5259 62.2177 39.5008 62.216 39.4756 62.2129L37.2028 61.9238C36.8805 61.8828 36.6524 61.5884 36.6935 61.266C36.7345 60.9438 37.0291 60.7169 37.3513 60.7567L39.6241 61.0458C39.9464 61.0868 40.1745 61.3813 40.1334 61.7036C40.0957 62.0007 39.8424 62.2177 39.5506 62.2177ZM35.0052 61.6396C34.9805 61.6396 34.9554 61.638 34.9302 61.6348L32.6574 61.3458C32.3351 61.3048 32.107 61.0103 32.1481 60.688C32.1891 60.3657 32.4837 60.1388 32.8059 60.1787L35.0787 60.4677C35.401 60.5088 35.6291 60.8032 35.588 61.1256C35.5502 61.4227 35.297 61.6396 35.0052 61.6396ZM57.0917 59.7666C56.7667 59.7666 56.5035 59.5033 56.5035 59.1784V56.8873C56.5035 56.5624 56.7667 56.2991 57.0917 56.2991C57.4166 56.2991 57.6799 56.5624 57.6799 56.8873V59.1784C57.6799 59.5033 57.4167 59.7666 57.0917 59.7666ZM57.0917 55.1846C56.7667 55.1846 56.5035 54.9213 56.5035 54.5964V52.3054C56.5035 51.9805 56.7667 51.7172 57.0917 51.7172C57.4166 51.7172 57.6799 51.9805 57.6799 52.3054V54.5964C57.6799 54.9213 57.4167 55.1846 57.0917 55.1846ZM57.0917 50.6026C56.7667 50.6026 56.5035 50.3393 56.5035 50.0144V47.7234C56.5035 47.3984 56.7667 47.1352 57.0917 47.1352C57.4166 47.1352 57.6799 47.3984 57.6799 47.7234V50.0144C57.6799 50.3392 57.4167 50.6026 57.0917 50.6026ZM57.0917 46.0206C56.7667 46.0206 56.5035 45.7573 56.5035 45.4323V43.1413C56.5035 42.8164 56.7667 42.5531 57.0917 42.5531C57.4166 42.5531 57.6799 42.8164 57.6799 43.1413V45.4323C57.6799 45.7572 57.4167 46.0206 57.0917 46.0206ZM56.269 41.6733C56.1238 41.6733 55.9782 41.6198 55.8646 41.512C55.4285 41.0989 54.8235 40.8357 54.1606 40.7708L54.145 40.7691C53.822 40.7344 53.5883 40.4443 53.6232 40.1213C53.6579 39.7983 53.9479 39.5645 54.271 39.5995L54.281 39.6006C55.1971 39.6903 56.0489 40.0661 56.6738 40.6581C56.9096 40.8815 56.9196 41.2538 56.6962 41.4897C56.5804 41.6116 56.4249 41.6733 56.269 41.6733ZM51.9313 40.5222C51.9099 40.5222 51.8882 40.5209 51.8664 40.5186L49.5891 40.2682C49.2662 40.2327 49.0331 39.9422 49.0686 39.6193C49.1042 39.2964 49.3949 39.064 49.7175 39.0988L51.9948 39.3492C52.3177 39.3848 52.5508 39.6752 52.5153 39.9981C52.4822 40.2992 52.2273 40.5222 51.9313 40.5222ZM47.3768 40.0214C47.3554 40.0214 47.3337 40.0202 47.3119 40.0178L45.0346 39.7674C44.7117 39.7319 44.4785 39.4414 44.5141 39.1185C44.5496 38.7956 44.8407 38.5629 45.163 38.5981L47.4403 38.8484C47.7632 38.884 47.9964 39.1745 47.9608 39.4973C47.9277 39.7985 47.6728 40.0214 47.3768 40.0214ZM42.8221 39.5207C42.8007 39.5207 42.779 39.5195 42.7572 39.5171L40.4799 39.2667C40.1571 39.2312 39.9239 38.9407 39.9595 38.6178C39.9949 38.2949 40.2855 38.0623 40.6084 38.0973L42.8857 38.3477C43.2085 38.3833 43.4417 38.6738 43.4061 38.9966C43.3731 39.2977 43.1182 39.5207 42.8221 39.5207ZM38.2675 39.02C38.2461 39.02 38.2244 39.0188 38.2026 39.0164L35.9253 38.766C35.6024 38.7305 35.3693 38.44 35.4049 38.1171C35.4403 37.7943 35.7306 37.5617 36.0538 37.5966L38.331 37.847C38.6539 37.8826 38.8871 38.1731 38.8515 38.4959C38.8185 38.797 38.5636 39.02 38.2675 39.02ZM33.7129 38.5192C33.6915 38.5192 33.6698 38.518 33.648 38.5156L31.3707 38.2652C31.0478 38.2297 30.8147 37.9392 30.8503 37.6163C30.8858 37.2935 31.1761 37.061 31.4992 37.0959L33.7764 37.3463C34.0994 37.3818 34.3324 37.6723 34.2969 37.9952C34.2639 38.2963 34.0089 38.5192 33.7129 38.5192Z" fill="url(#paint8_linear)"/>
<path d="M30.4544 61.0608C30.4297 61.0608 30.4047 61.0592 30.3795 61.056L29.2124 60.9077C28.8901 60.8667 28.6619 60.5722 28.703 60.25C28.744 59.9277 29.0385 59.6997 29.3608 59.7406L30.5279 59.8889C30.8501 59.9299 31.0783 60.2244 31.0372 60.5467C30.9994 60.8438 30.7462 61.0608 30.4544 61.0608Z" fill="url(#paint9_linear)"/>
<path d="M52.0655 30.2922L48.3009 32.3408C47.8105 32.6076 47.1966 32.4264 46.9298 31.936C46.663 31.4456 46.8441 30.8318 47.3345 30.5649L51.0993 28.5164C51.5897 28.2496 52.2035 28.4308 52.4704 28.9212C52.7372 29.4115 52.556 30.0254 52.0655 30.2922Z" fill="#61DB99"/>
<path d="M58.9178 54.3354L55.1818 50.5994C54.6547 50.0254 53.8983 49.6654 53.0576 49.6654C51.4649 49.6654 50.1738 50.9566 50.1738 52.5492C50.1738 53.3899 50.5338 54.1463 51.1078 54.6734L58.9179 62.4835V54.3354H58.9178Z" fill="url(#paint10_linear)"/>
<path d="M53.0576 55.4324C54.6502 55.4324 55.9413 54.1413 55.9413 52.5487C55.9413 50.956 54.6502 49.6649 53.0576 49.6649C51.4649 49.6649 50.1738 50.956 50.1738 52.5487C50.1738 54.1413 51.4649 55.4324 53.0576 55.4324Z" fill="url(#paint11_linear)"/>
<path d="M53.0575 54.5389C54.1567 54.5389 55.0477 53.6479 55.0477 52.5487C55.0477 51.4496 54.1567 50.5586 53.0575 50.5586C51.9584 50.5586 51.0674 51.4496 51.0674 52.5487C51.0674 53.6479 51.9584 54.5389 53.0575 54.5389Z" fill="url(#paint12_linear)"/>
<path d="M52.3014 52.2046C52.5289 52.2046 52.7132 52.0202 52.7132 51.7928C52.7132 51.5653 52.5289 51.381 52.3014 51.381C52.074 51.381 51.8896 51.5653 51.8896 51.7928C51.8896 52.0202 52.074 52.2046 52.3014 52.2046Z" fill="url(#paint13_linear)"/>
<path d="M53.8132 52.2046C54.0406 52.2046 54.225 52.0202 54.225 51.7928C54.225 51.5653 54.0406 51.381 53.8132 51.381C53.5857 51.381 53.4014 51.5653 53.4014 51.7928C53.4014 52.0202 53.5857 52.2046 53.8132 52.2046Z" fill="url(#paint14_linear)"/>
<path d="M52.3014 53.7174C52.5289 53.7174 52.7132 53.533 52.7132 53.3056C52.7132 53.0782 52.5289 52.8938 52.3014 52.8938C52.074 52.8938 51.8896 53.0782 51.8896 53.3056C51.8896 53.533 52.074 53.7174 52.3014 53.7174Z" fill="url(#paint15_linear)"/>
<path d="M53.8132 53.7174C54.0406 53.7174 54.225 53.533 54.225 53.3056C54.225 53.0782 54.0406 52.8938 53.8132 52.8938C53.5857 52.8938 53.4014 53.0782 53.4014 53.3056C53.4014 53.533 53.5857 53.7174 53.8132 53.7174Z" fill="url(#paint16_linear)"/>
</g>
<g clip-path="url(#clip1)">
<path d="M38.7185 22.5694C35.469 20.0009 30.7525 20.5529 28.1838 23.8025C25.6153 27.052 26.1673 31.7686 29.4169 34.3372C32.6664 36.9058 37.383 36.3538 39.9516 33.1041C42.5201 29.8546 41.9682 25.1381 38.7185 22.5694Z" fill="#F0A70A"/>
<path d="M39.7759 27.8476C39.9288 29.2796 39.5413 30.7067 38.6848 31.8658C36.8042 34.411 33.2034 34.9518 30.6582 33.0711C29.369 32.1185 28.532 30.6574 28.3617 29.0626C28.2089 27.6306 28.5964 26.2036 29.4529 25.0445C30.3639 23.8115 31.7005 23.0071 33.2166 22.7794C34.7326 22.5518 36.2465 22.9281 37.4794 23.8392C38.7687 24.7918 39.6058 26.2528 39.7759 27.8476Z" fill="#FED22B"/>
<path d="M36.5449 29.798C36.5449 29.1944 36.4881 28.58 35.8972 28.1728C36.2156 27.87 36.3915 27.3916 36.3915 26.7998C36.3915 26.167 36.1832 25.7038 35.7722 25.4234C35.7079 25.3796 35.6435 25.3414 35.5766 25.3082C35.5786 25.2902 35.5796 25.2719 35.5796 25.2534V24.54C35.5796 24.2533 35.3473 24.021 35.0606 24.021C34.774 24.021 34.5417 24.2533 34.5417 24.54V25.1045C34.2645 25.0928 33.9277 25.0926 33.5036 25.0947V24.54C33.5036 24.2533 33.2713 24.021 32.9847 24.021C32.6982 24.021 32.4657 24.2533 32.4657 24.54V25.1C32.3905 25.1001 32.3135 25.1002 32.2343 25.1002C31.88 25.1002 31.5918 25.3885 31.5918 25.7429C31.5918 26.0972 31.88 26.3854 32.2343 26.3854H32.3873V30.5282H32.2345C31.8802 30.5282 31.5919 30.8165 31.5919 31.1707C31.5919 31.525 31.8802 31.8133 32.2345 31.8133H32.4657V32.367C32.4657 32.6536 32.6982 32.8859 32.9847 32.8859C33.2713 32.8859 33.5036 32.6536 33.5036 32.367V31.8131L34.5417 31.8129V32.367C34.5417 32.6536 34.774 32.8859 35.0606 32.8859C35.3473 32.8859 35.5796 32.6536 35.5796 32.367V31.6535C35.5796 31.6421 35.5786 31.6309 35.5779 31.6195C36.1899 31.3311 36.5449 30.7212 36.5449 29.798ZM33.5891 26.2337C34.6073 26.2337 35.1897 26.1259 35.1897 26.902C35.1897 27.7925 34.647 27.6553 33.5891 27.6553V26.2337ZM33.5891 30.6791V28.738C34.8674 28.738 35.3429 28.5725 35.3429 29.7554C35.3429 30.3943 35.0817 30.6792 34.4959 30.6792H33.5891V30.6791Z" fill="#E38803"/>
<path d="M31.7223 33.0711C32.5927 33.7141 33.5864 34.074 34.593 34.1677C33.2387 34.293 31.8355 33.9409 30.6584 33.0711C29.3691 32.1185 28.5319 30.6574 28.3616 29.0627C28.2091 27.6305 28.5964 26.2036 29.453 25.0444C30.3638 23.8115 31.7004 23.007 33.2165 22.7794C33.684 22.7091 34.1516 22.6964 34.6106 22.7392C34.5009 22.7495 34.3905 22.7627 34.2804 22.7794C32.7645 23.007 31.4278 23.8115 30.517 25.0444C29.6603 26.2036 29.273 27.6305 29.4257 29.0627C29.5958 30.6574 30.433 32.1185 31.7223 33.0711Z" fill="#FDC202"/>
</g>
<g clip-path="url(#clip2)">
<path d="M47.5684 23.5779C48.9011 23.5779 50.1096 24.12 50.9849 24.9953L52.8418 24.0173L52.8485 23.1317C51.4957 21.779 49.6281 20.9119 47.5684 20.9119L46.6895 22.1863L47.5684 23.5779Z" fill="#FDBF00"/>
<path d="M47.5683 23.5779V20.9119C45.5086 20.9119 43.6409 21.779 42.2881 23.1317L42.2948 24.8962L44.1518 24.9953C45.027 24.12 46.2355 23.5779 47.5683 23.5779Z" fill="#FFDA2D"/>
<path d="M44.1518 24.9954L42.2882 23.1317C40.9355 24.4845 40.0684 26.3522 40.0684 28.4119L41.6357 29.2908L42.7344 28.4119C42.7344 27.0791 43.2765 25.8706 44.1518 24.9954Z" fill="#FDBF00"/>
<path d="M42.7344 28.4119H40.0684C40.0684 30.4716 40.9355 32.3392 42.2882 33.6921L44.0527 32.8064L44.1518 31.8284C43.2765 30.9531 42.7344 29.7446 42.7344 28.4119Z" fill="#FFDA2D"/>
<path d="M47.5683 33.2458C46.2355 33.2458 45.027 32.7037 44.1518 31.8284L42.2881 33.692C43.6409 35.0447 45.5086 35.9118 47.5683 35.9118L48.4472 34.7766L47.5683 33.2458Z" fill="#FDBF00"/>
<path d="M47.5684 35.9118C49.6281 35.9118 51.4957 35.0447 52.8485 33.692L52.146 32.1106L50.9849 31.8284C50.1096 32.7037 48.9011 33.2458 47.5684 33.2458V35.9118Z" fill="#FF9100"/>
<path d="M55.0679 28.4119L53.7934 27.533L52.4018 28.4119C52.4018 29.7446 51.8597 30.9531 50.9844 31.8284L52.848 33.6921C54.2007 32.3392 55.0679 30.4716 55.0679 28.4119Z" fill="#FDBF00"/>
<path d="M52.4018 28.4119H55.0679C55.0679 26.3522 54.2007 24.4845 52.848 23.1317L50.9844 24.9954C51.8597 25.8706 52.4018 27.0791 52.4018 28.4119Z" fill="#FF9100"/>
<path d="M47.5684 23.1384C44.6592 23.1384 42.2949 25.5027 42.2949 28.4119C42.2949 31.3211 44.6592 33.6853 47.5684 33.6853C50.4776 33.6853 52.8418 31.3211 52.8418 28.4119C52.8418 25.5027 50.4776 23.1384 47.5684 23.1384Z" fill="#FF9100"/>
<path d="M52.8418 28.4119C52.8418 31.3211 50.4776 33.6853 47.5684 33.6853V23.1384C50.4776 23.1384 52.8418 25.5027 52.8418 28.4119Z" fill="#DD7B05"/>
<path d="M50.2051 28.4119C50.2051 28.4998 50.1786 28.5876 50.126 28.6667L47.9287 31.7429C47.8408 31.8571 47.709 31.9275 47.5684 31.9275C47.4277 31.9275 47.2959 31.8571 47.208 31.7429L45.0107 28.6667C44.9581 28.5876 44.9316 28.4998 44.9316 28.4119H50.2051Z" fill="#FDBF00"/>
<path d="M50.2051 28.4119C50.2051 28.4998 50.1786 28.5876 50.126 28.6667L47.9287 31.7429C47.8408 31.8571 47.709 31.9275 47.5684 31.9275V28.4119H50.2051Z" fill="#FF9100"/>
<path d="M50.2051 28.4118L47.7617 29.6863C47.7002 29.7126 47.6386 29.7302 47.5684 29.7302C47.4981 29.7302 47.4365 29.7126 47.3751 29.6863L44.9316 28.4118C44.9316 28.324 44.9581 28.2361 45.0107 28.157L47.208 25.0808C47.2959 24.9665 47.4277 24.905 47.5684 24.905C47.709 24.905 47.8408 24.9665 47.9287 25.0808L50.126 28.157C50.1786 28.2361 50.2051 28.324 50.2051 28.4118Z" fill="#FFDA2D"/>
<path d="M50.2051 28.4118L47.7617 29.6863C47.7002 29.7126 47.6386 29.7302 47.5684 29.7302V24.905C47.709 24.905 47.8408 24.9665 47.9287 25.0808L50.126 28.157C50.1786 28.2361 50.2051 28.324 50.2051 28.4118Z" fill="#FDBF00"/>
</g>
<defs>
<linearGradient id="paint0_linear" x1="45.6632" y1="29.4871" x2="45.4507" y2="35.7188" gradientUnits="userSpaceOnUse">
<stop stop-color="#FFB92D"/>
<stop offset="1" stop-color="#F59500"/>
</linearGradient>
<linearGradient id="paint1_linear" x1="46.6821" y1="33.6248" x2="46.1033" y2="38.3988" gradientUnits="userSpaceOnUse">
<stop stop-color="#FFB92D"/>
<stop offset="1" stop-color="#F59500"/>
</linearGradient>
<linearGradient id="paint2_linear" x1="45.068" y1="40.0614" x2="45.068" y2="50.2667" gradientUnits="userSpaceOnUse">
<stop stop-color="#FF4C54"/>
<stop offset="1" stop-color="#BE3F45"/>
</linearGradient>
<linearGradient id="paint3_linear" x1="45.068" y1="47.6394" x2="45.068" y2="63.4006" gradientUnits="userSpaceOnUse">
<stop stop-color="#FF4C54"/>
<stop offset="1" stop-color="#BE3F45"/>
</linearGradient>
<linearGradient id="paint4_linear" x1="61.1983" y1="50.8627" x2="58.5426" y2="50.8627" gradientUnits="userSpaceOnUse">
<stop stop-color="#BE3F45" stop-opacity="0"/>
<stop offset="1" stop-color="#BE3F45"/>
</linearGradient>
<linearGradient id="paint5_linear" x1="37.448" y1="48.1364" x2="50.9576" y2="54.3681" gradientUnits="userSpaceOnUse">
<stop stop-color="#FFB92D"/>
<stop offset="1" stop-color="#F59500"/>
</linearGradient>
<linearGradient id="paint6_linear" x1="42.4619" y1="62.0117" x2="41.9034" y2="66.2798" gradientUnits="userSpaceOnUse">
<stop stop-color="#BE3F45" stop-opacity="0"/>
<stop offset="1" stop-color="#BE3F45"/>
</linearGradient>
<linearGradient id="paint7_linear" x1="28.5723" y1="36.714" x2="28.5723" y2="64.0084" gradientUnits="userSpaceOnUse">
<stop stop-color="#FFF465"/>
<stop offset="1" stop-color="#FFE600"/>
</linearGradient>
<linearGradient id="paint8_linear" x1="44.2629" y1="36.7148" x2="44.2629" y2="63.9519" gradientUnits="userSpaceOnUse">
<stop stop-color="#FFF465"/>
<stop offset="1" stop-color="#FFE600"/>
</linearGradient>
<linearGradient id="paint9_linear" x1="29.87" y1="36.7133" x2="29.87" y2="64.0068" gradientUnits="userSpaceOnUse">
<stop stop-color="#FFF465"/>
<stop offset="1" stop-color="#FFE600"/>
</linearGradient>
<linearGradient id="paint10_linear" x1="56.9059" y1="56.3985" x2="48.8245" y2="48.3171" gradientUnits="userSpaceOnUse">
<stop stop-color="#BE3F45" stop-opacity="0"/>
<stop offset="1" stop-color="#BE3F45"/>
</linearGradient>
<linearGradient id="paint11_linear" x1="53.057" y1="50.7388" x2="53.057" y2="54.9089" gradientUnits="userSpaceOnUse">
<stop stop-color="#FF4C54"/>
<stop offset="1" stop-color="#BE3F45"/>
</linearGradient>
<linearGradient id="paint12_linear" x1="53.0569" y1="53.7985" x2="53.0569" y2="50.9209" gradientUnits="userSpaceOnUse">
<stop stop-color="#FF4C54"/>
<stop offset="1" stop-color="#BE3F45"/>
</linearGradient>
<linearGradient id="paint13_linear" x1="48.3978" y1="34.5566" x2="49.2213" y2="38.1933" gradientUnits="userSpaceOnUse">
<stop stop-color="#A7F3CE"/>
<stop offset="1" stop-color="#61DB99"/>
</linearGradient>
<linearGradient id="paint14_linear" x1="49.9095" y1="34.5567" x2="50.733" y2="38.1935" gradientUnits="userSpaceOnUse">
<stop stop-color="#A7F3CE"/>
<stop offset="1" stop-color="#61DB99"/>
</linearGradient>
<linearGradient id="paint15_linear" x1="48.072" y1="34.6302" x2="48.8955" y2="38.267" gradientUnits="userSpaceOnUse">
<stop stop-color="#A7F3CE"/>
<stop offset="1" stop-color="#61DB99"/>
</linearGradient>
<linearGradient id="paint16_linear" x1="49.5836" y1="34.6304" x2="50.4072" y2="38.2672" gradientUnits="userSpaceOnUse">
<stop stop-color="#A7F3CE"/>
<stop offset="1" stop-color="#61DB99"/>
</linearGradient>
<clipPath id="clip0">
<rect width="40" height="40" fill="white" transform="translate(25.0684 25.9119)"/>
</clipPath>
<clipPath id="clip1">
<rect width="15" height="15" fill="white" transform="translate(26.5684 20.9536)"/>
</clipPath>
<clipPath id="clip2">
<rect width="15" height="15" fill="white" transform="translate(40.0684 20.9119)"/>
</clipPath>
</defs>
</svg>
