<svg width="24" height="24" viewBox="0 0 32 32" fill="#000070" xmlns="http://www.w3.org/2000/svg">
<g clip-path="url(#clip0)">
<path d="M12.3333 0H2.33325C1.04663 0 0 1.04663 0 2.33325V8.33325C0 9.62012 1.04663 10.6667 2.33325 10.6667H12.3333C13.6201 10.6667 14.6667 9.62012 14.6667 8.33325V2.33325C14.6667 1.04663 13.6201 0 12.3333 0Z" fill="#000070"/>
<path d="M12.3333 13.334H2.33325C1.04663 13.334 0 14.3806 0 15.6675V29.6675C0 30.9541 1.04663 32.0007 2.33325 32.0007H12.3333C13.6201 32.0007 14.6667 30.9541 14.6667 29.6675V15.6675C14.6667 14.3806 13.6201 13.334 12.3333 13.334Z" fill="#000070"/>
<path d="M29.667 21.334H19.667C18.3801 21.334 17.3335 22.3806 17.3335 23.6675V29.6675C17.3335 30.9541 18.3801 32.0007 19.667 32.0007H29.667C30.9536 32.0007 32.0002 30.9541 32.0002 29.6675V23.6675C32.0002 22.3806 30.9536 21.334 29.667 21.334Z" fill="#000070"/>
<path d="M29.667 0H19.667C18.3801 0 17.3335 1.04663 17.3335 2.33325V16.3333C17.3335 17.6201 18.3801 18.6667 19.667 18.6667H29.667C30.9536 18.6667 32.0002 17.6201 32.0002 16.3333V2.33325C32.0002 1.04663 30.9536 0 29.667 0V0Z" fill="#000070"/>
</g>
<defs>
<clipPath id="clip0">
<rect width="32" height="32" fill="white"/>
</clipPath>
</defs>
</svg>
