<svg width="24" height="24" viewBox="0 0 32 33" fill="#000000" xmlns="http://www.w3.org/2000/svg">
<g clip-path="url(#clip0)">
<path d="M12.3333 0.5H2.33325C1.04663 0.5 0 1.54663 0 2.83325V8.83325C0 10.1201 1.04663 11.1667 2.33325 11.1667H12.3333C13.6201 11.1667 14.6667 10.1201 14.6667 8.83325V2.83325C14.6667 1.54663 13.6201 0.5 12.3333 0.5Z" fill="white"/>
<path d="M12.3333 13.834H2.33325C1.04663 13.834 0 14.8806 0 16.1675V30.1675C0 31.4541 1.04663 32.5007 2.33325 32.5007H12.3333C13.6201 32.5007 14.6667 31.4541 14.6667 30.1675V16.1675C14.6667 14.8806 13.6201 13.834 12.3333 13.834Z" fill="white"/>
<path d="M29.6665 21.834H19.6665C18.3796 21.834 17.333 22.8806 17.333 24.1675V30.1675C17.333 31.4541 18.3796 32.5007 19.6665 32.5007H29.6665C30.9531 32.5007 31.9998 31.4541 31.9998 30.1675V24.1675C31.9998 22.8806 30.9531 21.834 29.6665 21.834Z" fill="white"/>
<path d="M29.6665 0.5H19.6665C18.3796 0.5 17.333 1.54663 17.333 2.83325V16.8333C17.333 18.1201 18.3796 19.1667 19.6665 19.1667H29.6665C30.9531 19.1667 31.9998 18.1201 31.9998 16.8333V2.83325C31.9998 1.54663 30.9531 0.5 29.6665 0.5V0.5Z" fill="white"/>
</g>
<defs>
<clipPath id="clip0">
<rect width="32" height="32" fill="white" transform="translate(0 0.5)"/>
</clipPath>
</defs>
</svg>
