<svg width="61" height="77" viewBox="0 0 61 77" fill="none" xmlns="http://www.w3.org/2000/svg">
<rect x="2" y="2" width="42" height="70" rx="3" fill="white" stroke="#21B8C7" stroke-width="4"/>
<line x1="1" y1="12" x2="46" y2="12" stroke="#21B8C7" stroke-width="4"/>
<line x1="1" y1="57" x2="46" y2="57" stroke="#21B8C7" stroke-width="4"/>
<path d="M21.2303 19H31.0658L24.7105 32.3553H35L15.1776 54L21.2303 38.1886H12L21.2303 19Z" fill="#00B9CD"/>
<circle cx="46" cy="62" r="15" fill="#00B9CD"/>
<path d="M48.2816 58.904L48.2931 59.1419H48.5313H50.543H50.8035L50.7928 58.8816C50.7269 57.2794 49.7613 55.8014 47.871 55.2665V53.4865V53.2365H47.621H44.8903H44.6403V53.4865V55.2337C42.9039 55.6665 41.4544 56.8463 41.4544 58.6846C41.4544 59.8085 41.9296 60.6576 42.7361 61.2952C43.5306 61.9233 44.6421 62.3437 45.9248 62.6486L45.9248 62.6486C47.0462 62.915 47.6794 63.2354 48.031 63.5625C48.3686 63.8765 48.4633 64.2123 48.4633 64.5765C48.4633 64.8292 48.3732 65.1598 48.072 65.4298C47.7694 65.7011 47.2227 65.9392 46.2557 65.9392C45.3517 65.9392 44.7607 65.7391 44.3886 65.4456C44.0215 65.1561 43.837 64.7519 43.792 64.2738L43.7707 64.0473H43.5431H41.5405H41.2763L41.2909 64.3111C41.4044 66.3604 42.9105 67.5224 44.6403 67.947V69.7027V69.9527H44.8903H47.621H47.871V69.7027V67.9699C48.7096 67.7853 49.4757 67.4439 50.0486 66.9184C50.6739 66.3449 51.0569 65.5623 51.0569 64.5675C51.0569 63.2005 50.4593 62.2714 49.5921 61.625C48.7391 60.9891 47.6285 60.6283 46.591 60.3614C45.5636 60.0972 44.9202 59.8362 44.5362 59.555C44.3479 59.4171 44.2288 59.2791 44.1554 59.1394C44.0826 59.0006 44.048 58.8468 44.048 58.6666C44.048 58.264 44.2322 57.9213 44.5928 57.6702C44.9605 57.4142 45.5199 57.25 46.2557 57.25C47.0298 57.25 47.5141 57.433 47.8109 57.7072C48.1062 57.9801 48.2562 58.3805 48.2816 58.904Z" fill="white" stroke="white" stroke-width="0.5"/>
</svg>
