<svg width="40" height="41" viewBox="0 0 40 41" fill="none" xmlns="http://www.w3.org/2000/svg">
<g clip-path="url(#clip0)">
<path d="M20 40.9902C31.0457 40.9902 40 32.0359 40 20.9902C40 9.94454 31.0457 0.990234 20 0.990234C8.9543 0.990234 0 9.94454 0 20.9902C0 32.0359 8.9543 40.9902 20 40.9902Z" fill="#8AC9FE"/>
<path d="M28.6656 2.95898C31.013 6.23648 32.3952 10.2523 32.3952 14.5912C32.3952 25.6369 23.4409 34.5912 12.3952 34.5912C9.29094 34.5912 6.35195 33.884 3.73047 32.6219C7.35891 37.688 13.2941 40.9896 20.0009 40.9896C31.0466 40.9896 40.0009 32.0353 40.0009 20.9896C40.0009 13.0481 35.3723 6.18781 28.6656 2.95898Z" fill="#60B7FF"/>
<path d="M20.0002 38.4057C29.6184 38.4057 37.4154 30.6086 37.4154 20.9904C37.4154 11.3723 29.6184 3.5752 20.0002 3.5752C10.382 3.5752 2.58496 11.3723 2.58496 20.9904C2.58496 30.6086 10.382 38.4057 20.0002 38.4057Z" fill="#EAF6FF"/>
<path d="M31.1378 7.60352C31.9495 9.7793 32.3942 12.1338 32.3942 14.5926C32.3942 25.6383 23.4399 34.5926 12.3942 34.5926C11.1368 34.5926 9.90691 34.4753 8.71387 34.2534C11.7536 36.8426 15.6939 38.4062 19.9998 38.4062C29.618 38.4062 37.415 30.6091 37.415 20.9909C37.415 15.6091 34.9733 10.798 31.1378 7.60352Z" fill="#D8ECFE"/>
<path d="M19.7654 10.5406L14.1485 19.5989C14.0807 19.7083 14.1137 19.8519 14.2226 19.9206L19.9526 23.5396C20.0299 23.5884 20.1286 23.5878 20.2053 23.538L25.7798 19.9221C25.8872 19.8524 25.9189 19.7094 25.8508 19.6009L20.1632 10.5394C20.071 10.3926 19.8569 10.3932 19.7654 10.5406Z" fill="#60B7FF"/>
<path d="M20.1591 26.6735L25.0826 23.6113C25.2961 23.4785 25.5404 23.7292 25.4022 23.9392L20.4415 31.4745C20.3511 31.6118 20.151 31.6158 20.0552 31.4821L14.6873 23.9921C14.5383 23.7842 14.7826 23.5219 15.0005 23.6558L19.9126 26.6741C19.9883 26.7206 20.0837 26.7204 20.1591 26.6735Z" fill="#60B7FF"/>
</g>
<defs>
<clipPath id="clip0">
<rect width="40" height="40" fill="white" transform="translate(0 0.990234)"/>
</clipPath>
</defs>
</svg>
