<svg width="44" height="45" viewBox="0 0 44 45" fill="none" xmlns="http://www.w3.org/2000/svg">
                    <path
                        d="M22 39C31.1127 39 38.5 31.6127 38.5 22.5C38.5 13.3873 31.1127 6 22 6C12.8873 6 5.5 13.3873 5.5 22.5C5.5 31.6127 12.8873 39 22 39Z"
                        stroke="#2C3E50" stroke-width="1.83333" stroke-linecap="round" stroke-linejoin="round" />
                    <path
                        d="M27.1333 17C26.8012 16.4239 26.3187 15.9489 25.7374 15.626C25.1561 15.3031 24.4979 15.1443 23.8333 15.1667H20.1667C19.1942 15.1667 18.2616 15.553 17.5739 16.2406C16.8863 16.9282 16.5 17.8609 16.5 18.8333C16.5 19.8058 16.8863 20.7384 17.5739 21.426C18.2616 22.1137 19.1942 22.5 20.1667 22.5H23.8333C24.8058 22.5 25.7384 22.8863 26.4261 23.5739C27.1137 24.2616 27.5 25.1942 27.5 26.1667C27.5 27.1391 27.1137 28.0717 26.4261 28.7594C25.7384 29.447 24.8058 29.8333 23.8333 29.8333H20.1667C19.5021 29.8557 18.8439 29.6969 18.2626 29.374C17.6813 29.051 17.1988 28.5761 16.8667 28"
                        stroke="#2C3E50" stroke-width="1.83333" stroke-linecap="round" stroke-linejoin="round" />
                    <path d="M22 29.8333V33.5M22 11.5V15.1667V11.5Z" stroke="#2C3E50" stroke-width="1.83333"
                        stroke-linecap="round" stroke-linejoin="round" />
                </svg>