<svg width="90" height="84" viewBox="0 0 90 84" fill="none" xmlns="http://www.w3.org/2000/svg">
<path d="M69.4314 7.19721C66.8775 2.42073 63.8184 0 60.3382 0C56.3321 0 52.1715 3.27399 47.9678 9.7357C47.43 10.5628 46.9263 11.3898 46.4619 12.1881C45.9975 11.3898 45.4937 10.5628 44.9548 9.7357C40.7536 3.27399 36.5917 0 32.5856 0C29.1055 0 26.0451 2.42073 23.4925 7.19721C21.5838 10.7722 22.2719 13.3397 23.1852 14.8629C24.8309 17.6083 28.5101 19.4587 34.433 20.5159C38.9807 21.3298 43.793 21.4503 46.2566 21.4503H46.2579C46.3272 21.4503 46.3952 21.4503 46.462 21.4503C46.53 21.4503 46.598 21.4503 46.6675 21.4503C49.1312 21.4503 53.9434 21.3298 58.4913 20.5159C64.4128 19.4587 68.092 17.6083 69.7406 14.8629C70.6508 13.3397 71.3416 10.7722 69.4314 7.19721Z" fill="#F8B700"/>
<path d="M83.9996 34.6544C83.9996 32.6805 82.3972 31.0808 80.4227 31.0808H12.4992C10.5249 31.0808 8.92383 32.6805 8.92383 34.6544V76.9743C8.92383 78.9483 10.5249 80.5478 12.4992 80.5478H80.4229C82.3972 80.5478 83.9998 78.9483 83.9998 76.9743V34.6544H83.9996Z" fill="#C52828"/>
<path d="M89.4717 37.5861C89.4717 39.5545 87.8652 41.1496 85.8858 41.1496H7.03659C5.05725 41.1495 3.4519 39.5543 3.4519 37.5859V19.7635C3.4519 17.7951 5.05725 16.1973 7.03659 16.1973H85.886C87.8653 16.1973 89.4719 17.7949 89.4719 19.7635V37.5861H89.4717Z" fill="#CC2E2E"/>
<path d="M55.3268 16.1973H37.3787V41.1496H55.3268V16.1973Z" fill="#FFC82C"/>
<path d="M8.92383 44.7306L83.9998 51.4369V41.3684H8.92383V44.7306Z" fill="#A20000"/>
<path d="M55.3268 41.1494H37.3787V80.5479H55.3268V41.1494Z" fill="#FFC82C"/>
<path d="M37.3787 47.4005L55.3268 49.0292V41.3684H37.3787V47.4005Z" fill="#F8B700"/>
<path d="M9.85984 69.0007C10.4974 69.0007 11.0142 68.4838 11.0142 67.8463C11.0142 67.2087 10.4974 66.6919 9.85984 66.6919C9.22228 66.6919 8.70544 67.2087 8.70544 67.8463C8.70544 68.4838 9.22228 69.0007 9.85984 69.0007Z" fill="#F8B700"/>
<path d="M17.1937 73.686C17.8313 73.686 18.3481 73.1691 18.3481 72.5316C18.3481 71.894 17.8313 71.3772 17.1937 71.3772C16.5561 71.3772 16.0393 71.894 16.0393 72.5316C16.0393 73.1691 16.5561 73.686 17.1937 73.686Z" fill="#F8B700"/>
<path d="M26.712 71.7168L26.2932 71.1453C25.8405 70.5228 25.8292 69.6796 26.2762 69.0459L26.6837 68.4687C27.3061 67.5859 27.0175 66.3579 26.0612 65.843L25.4387 65.5091C24.7597 65.1469 24.3862 64.3887 24.5164 63.6247L24.6352 62.9287C24.8163 61.8648 24.0184 60.8802 22.9376 60.8349L22.2302 60.8066C21.4606 60.7727 20.7929 60.2521 20.5778 59.5108L20.3798 58.8317C20.0799 57.7905 18.9368 57.2529 17.9408 57.683L17.2901 57.9603C16.5827 58.2658 15.7565 58.0848 15.2416 57.5076L14.7719 56.9813C14.0533 56.1778 12.7913 56.1834 12.0783 57.0039L11.6143 57.5359C11.105 58.1187 10.2845 58.3111 9.57149 58.0169L8.91506 57.7452C7.91346 57.3321 6.7817 57.8924 6.4931 58.9336L6.30636 59.6183C6.10264 60.3653 5.44622 60.8972 4.67663 60.9368L3.96928 60.9764C2.88845 61.0387 2.10754 62.0346 2.30559 63.0985L2.43575 63.7945C2.57722 64.5528 2.21505 65.3167 1.54166 65.6902L0.924848 66.0354C-0.0201707 66.5616 -0.291793 67.7953 0.347651 68.6667L0.766402 69.2382C1.21911 69.8607 1.23042 70.7039 0.783378 71.3377L0.375945 71.9149C-0.246522 72.7976 0.042076 74.0256 0.998412 74.5405L1.62088 74.8744C2.29993 75.2366 2.67342 75.9949 2.54326 76.7588L2.42443 77.4548C2.24335 78.5187 3.04124 79.5033 4.12207 79.5486L4.82942 79.5769C5.59901 79.6108 6.26675 80.1314 6.48178 80.8727L6.67984 81.5518C6.97976 82.593 8.12283 83.1306 9.11878 82.7005L9.76954 82.4232C10.4769 82.1177 11.3031 82.2987 11.818 82.8759L12.2877 83.4022C13.012 84.2058 14.2739 84.2001 14.9813 83.3796L15.4453 82.8477C15.9546 82.2648 16.7751 82.0724 17.4881 82.3667L18.1446 82.6383C19.1462 83.0514 20.2779 82.4911 20.5665 81.4499L20.7533 80.7652C20.957 80.0183 21.6134 79.4863 22.383 79.4467L23.0903 79.4071C24.1712 79.3449 24.9521 78.3489 24.754 77.2851L24.6239 76.589C24.4824 75.8307 24.8446 75.0668 25.518 74.6933L26.1348 74.3481C27.0798 73.8275 27.3514 72.5939 26.712 71.7168ZM7.0703 67.8462C7.0703 66.307 8.31523 65.0621 9.85443 65.0621C11.3936 65.0621 12.6386 66.307 12.6386 67.8462C12.6386 69.3854 11.3936 70.6303 9.85443 70.6303C8.31523 70.6303 7.0703 69.3797 7.0703 67.8462ZM10.392 75.0272C10.1543 75.3158 9.72427 75.3554 9.43567 75.1177C9.14708 74.8801 9.10746 74.45 9.34513 74.1614L16.6506 65.362C16.8883 65.0734 17.3184 65.0338 17.607 65.2714C17.8956 65.5091 17.9352 65.9392 17.6975 66.2278L10.392 75.0272ZM17.1939 75.3158C15.6547 75.3158 14.4098 74.0709 14.4098 72.5317C14.4098 70.9925 15.6547 69.7475 17.1939 69.7475C18.7331 69.7475 19.978 70.9925 19.978 72.5317C19.978 74.0709 18.7331 75.3158 17.1939 75.3158Z" fill="#F8B700"/>
</svg>
