<svg width="87" height="63" viewBox="0 0 26 19" fill="none" xmlns="http://www.w3.org/2000/svg">
    <path fill-rule="evenodd" clip-rule="evenodd"
        d="M5.54089 7.02893C5.54089 7.39994 5.10329 8.31885 4.92095 8.65104C4.75077 8.95303 4.40637 9.47935 4.02549 9.26365C3.74186 9.10402 3.25564 8.6381 3.46633 8.26708C3.77022 7.73213 4.5968 7.40426 5.11949 7.17992C5.237 7.13247 5.41123 7.04187 5.54089 7.02893ZM25.2897 1.84766V16.8522C25.2897 17.0161 24.9088 17.7107 24.7346 17.8919C24.694 17.9351 24.6657 17.9523 24.6252 17.9868L24.2929 18.237C24.2159 18.2845 23.8756 18.4786 23.7864 18.4786H1.81723C1.67136 18.4786 1.39178 18.3147 1.27428 18.2457C1.00685 18.086 0.852882 17.9394 0.670548 17.6935C0.613822 17.6158 0.569251 17.5382 0.520629 17.4476C0.472007 17.3613 0.289673 17.0032 0.289673 16.9083V1.79589C0.289673 1.67509 0.476059 1.3127 0.532785 1.21348C0.808311 0.730295 1.37152 0.216914 1.91852 0.221228C2.9639 0.221228 3.92825 0.195343 4.97768 0.195343H23.7621C23.8513 0.195343 24.2078 0.398107 24.3051 0.454191C24.4874 0.562044 24.5928 0.661269 24.7346 0.812264C24.9331 1.01934 25.2897 1.65783 25.2897 1.84766ZM6.68757 7.02893C6.82533 7.04187 7.19405 7.20149 7.33586 7.26189C7.71674 7.42583 8.85126 7.94352 8.85126 8.46985C8.85126 8.70281 8.24753 9.56132 7.83829 9.2507C7.29535 8.82792 7.00361 7.97804 6.7686 7.2964C6.73619 7.21875 6.71593 7.09795 6.68757 7.02893ZM8.54737 6.8693H24.4996V13.9229C24.4996 14.3457 24.4752 14.6822 24.4752 15.0877C24.4752 15.4803 24.4712 15.8686 24.4752 16.2569C24.4752 16.6538 24.459 16.891 24.2119 17.1715C23.6446 17.8186 23.4987 17.5425 22.9761 17.6201C22.6965 17.6589 20.6138 17.6417 20.2167 17.6417L6.53359 17.6676V8.98323L6.79291 9.35856C7.03197 9.72957 7.44932 10.1524 7.91123 10.1524C8.32047 10.1524 8.56358 10.1437 8.92014 9.81586C9.14299 9.61309 9.09032 9.68643 9.28076 9.44053C9.43473 9.23776 9.60491 8.96166 9.64137 8.68124C9.73052 7.92627 9.28076 7.42583 8.74591 7.03756C8.68108 6.9901 8.58789 6.92539 8.54737 6.8693ZM2.60734 8.41376C2.60734 8.95734 2.82209 9.27659 3.11382 9.58721C3.53116 10.0316 3.7135 10.1524 4.31723 10.1524C4.53603 10.1524 4.65758 10.092 4.7994 10.0143C4.87233 9.97979 4.92906 9.94959 4.99389 9.89783C5.03441 9.86331 5.04251 9.85037 5.07898 9.82017C5.28157 9.65192 5.17217 9.73389 5.31804 9.56132C5.49227 9.35424 5.60977 9.11697 5.71917 8.98323V17.6676C5.26131 17.6676 2.12517 17.6633 1.88611 17.5985C1.60248 17.5166 1.14056 17.0161 1.10815 16.74C1.06358 16.382 1.07979 15.4803 1.07979 15.0877C1.07979 14.7167 1.05548 14.4018 1.05548 14.0049V6.8693H3.72971L3.55142 7.00304C3.10977 7.31366 2.60734 7.79253 2.60734 8.41376ZM6.68757 5.80803L6.92257 5.13934C7.01982 4.90637 7.08465 4.72087 7.18595 4.49653C7.28724 4.28945 7.38449 4.09532 7.52225 3.93138C7.85045 3.53448 8.04089 3.36192 8.42582 3.74156L8.64056 3.97021C9.00928 4.37142 8.87152 4.60007 8.47444 4.9452C8.10572 5.26445 7.00361 5.80371 6.68757 5.80803ZM4.18757 3.53017C4.83586 3.53017 5.54494 5.56212 5.5652 5.83823C5.50847 5.80803 5.39502 5.78214 5.33424 5.76057L4.64137 5.4629C4.25645 5.29033 3.74591 5.00129 3.49875 4.64321C3.27184 4.30671 3.54737 4.03492 3.77428 3.79333C3.85126 3.71136 4.05385 3.53017 4.18757 3.53017ZM6.53359 3.88393V1.03228H21.72C21.8496 1.03228 21.9793 1.03228 22.1049 1.03228C22.2508 1.0366 22.2953 1.06248 22.4615 1.06248C22.9031 1.05817 23.5919 0.997772 23.8877 1.19622C24.2281 1.42918 24.4388 1.75274 24.4712 2.20141L24.4996 5.99785H8.52306C8.93635 5.61389 9.8075 5.18248 9.63327 4.13846C9.51171 3.42663 8.5028 2.30927 7.51009 2.80539C7.19 2.96502 7.01982 3.16778 6.80912 3.47408C6.74024 3.56899 6.60653 3.82784 6.53359 3.88393ZM3.00442 1.03228L5.75159 1.01071L5.74753 3.94864C5.69891 3.91412 5.73133 3.99178 5.69486 3.88393C5.61787 3.59919 5.09113 2.92619 4.65353 2.76657C4.38611 2.67165 4.02954 2.66734 3.75807 2.77519C3.53522 2.86148 3.42987 2.96933 3.2759 3.09875C3.20701 3.15915 3.18676 3.17209 3.12598 3.23681C3.03684 3.33172 2.9639 3.43094 2.89097 3.53448C2.81398 3.64665 2.75726 3.75019 2.70053 3.89687C2.43716 4.59576 2.72889 5.05306 3.13813 5.4931C3.32452 5.69155 3.67703 5.9202 3.72971 5.99785H1.05548V3.39643C1.05548 3.07287 1.07979 2.84853 1.07979 2.52497C1.07979 2.23593 1.07168 1.95551 1.17298 1.75706C1.22565 1.65352 1.27833 1.59744 1.34721 1.50684C1.5498 1.23073 1.79697 1.06248 2.17379 1.06248C2.48173 1.05817 2.72889 1.03228 3.00442 1.03228Z"
        fill="#000070" fill-opacity="0.5" />
    <path
        d="M13.1447 12.9414C13.4295 13.9342 12.8554 14.9698 11.8626 15.2545C10.8699 15.5392 9.83425 14.9652 9.54955 13.9724C9.26484 12.9796 9.83886 11.944 10.8316 11.6593C11.8244 11.3746 12.86 11.9486 13.1447 12.9414Z"
        stroke="#000070" stroke-opacity="0.5" />
    <ellipse cx="19.8127" cy="11.3815" rx="1.48503" ry="1.48503" transform="rotate(-16.0014 19.8127 11.3815)"
        fill="#000070" fill-opacity="0.5" />
    <rect x="10.4956" y="12.1216" width="7.57013" height="2.17455" rx="1.08727"
        transform="rotate(12.2296 10.4956 12.1216)" fill="#000070" fill-opacity="0.5" />
    <path
        d="M20.7962 13.5191C20.9479 13.4756 21.0638 13.6552 20.9618 13.7756C20.9476 13.7922 20.9302 13.8058 20.9105 13.8155L17.4037 15.5393C17.0299 15.7231 16.5864 15.6931 16.2408 15.4607L15.7874 15.156C15.5523 14.998 15.474 14.6883 15.6056 14.4375L16.977 11.8239C17.1067 11.5767 17.4822 11.7244 17.4088 11.9937C17.3864 12.076 17.4106 12.164 17.4721 12.2232L18.1956 12.9197C18.4759 13.1895 18.8313 13.3681 19.2151 13.4321L20.3481 13.621C20.3869 13.6274 20.4265 13.6251 20.4643 13.6143L20.7962 13.5191Z"
        fill="#000070" fill-opacity="0.5" />
</svg>
