<svg width="40" height="41" viewBox="0 0 40 41" fill="none" xmlns="http://www.w3.org/2000/svg">
<circle cx="20" cy="20.9902" r="20" fill="#1A5420"/>
<path d="M27.9932 17.3545H31.1572V19.6982H27.9932V21.9102H31.1572V24.2539H27.9932V31.4902H24.2871L19.7314 24.2539H14.7656V31.4902H11.0742V24.2539H7.9834V21.9102H11.0742V19.6982H7.9834V17.3545H11.0742V10.1621H14.7656L19.292 17.3545H24.3164V10.1621H27.9932V17.3545ZM22.1484 21.9102H24.3164V19.6982H20.7568L22.1484 21.9102ZM14.7656 21.9102H18.252L16.8604 19.6982H14.7656V21.9102ZM24.3164 25.3525V24.2539H23.6279L24.3164 25.3525ZM14.7656 17.3545H15.3955L14.7656 16.3584V17.3545Z" fill="#EFEFF8"/>
</svg>
