<svg width="40" height="40" viewBox="0 0 40 40" fill="none" xmlns="http://www.w3.org/2000/svg">
<path d="M28.0144 28.6527C27.7539 28.3922 27.3316 28.3922 27.0711 28.6527L20.6671 35.0573V16.6667C20.6671 16.2985 20.3686 16 20.0004 16C19.6322 16 19.3337 16.2985 19.3337 16.6667V35.0573L12.9297 28.6527C12.6692 28.3922 12.2469 28.3922 11.9864 28.6527C11.7259 28.9132 11.7259 29.3355 11.9864 29.596L19.5284 37.1373C19.7884 37.398 20.2106 37.3986 20.4712 37.1385C20.4716 37.1381 20.4721 37.1377 20.4724 37.1373L28.0144 29.596C28.2749 29.3355 28.2749 28.9132 28.0144 28.6527Z" fill="#2C3E50"/>
<path d="M38 2.66699H2C0.895417 2.66699 0 3.56241 0 4.66699V28.667C0 29.7716 0.895417 30.667 2 30.667H8.66667C9.03483 30.667 9.33333 30.3685 9.33333 30.0003C9.33333 29.6322 9.03483 29.3337 8.66667 29.3337H2C1.63183 29.3337 1.33333 29.0352 1.33333 28.667V10.667H38.6667V28.667C38.6667 29.0352 38.3682 29.3337 38 29.3337H31.3333C30.9652 29.3337 30.6667 29.6322 30.6667 30.0003C30.6667 30.3685 30.9652 30.667 31.3333 30.667H38C39.1046 30.667 40 29.7716 40 28.667V4.66699C40 3.56241 39.1046 2.66699 38 2.66699ZM38.6667 8.00033H1.33333V4.66699C1.33333 4.29883 1.63183 4.00033 2 4.00033H38C38.3682 4.00033 38.6667 4.29883 38.6667 4.66699V8.00033Z" fill="#2C3E50"/>
<path d="M19.3333 12H4.66667C4.2985 12 4 12.2985 4 12.6667C4 13.0348 4.2985 13.3333 4.66667 13.3333H19.3333C19.7015 13.3333 20 13.0348 20 12.6667C20 12.2985 19.7015 12 19.3333 12Z" fill="#2C3E50"/>
</svg>