
<svg width="40" height="40" viewBox="0 0 40 40" fill="none" xmlns="http://www.w3.org/2000/svg">
<path d="M11.9876 24.6803C12.2481 24.9408 12.6704 24.9408 12.9309 24.6803L19.3349 18.2757V36.6663C19.3349 37.0345 19.6334 37.333 20.0016 37.333C20.3697 37.333 20.6682 37.0345 20.6682 36.6663L20.6682 18.2757L27.0722 24.6803C27.3327 24.9408 27.7551 24.9408 28.0156 24.6803C28.2761 24.4198 28.2761 23.9975 28.0156 23.737L20.4736 16.1957C20.2136 15.935 19.7914 15.9344 19.5307 16.1945C19.5303 16.1949 19.5299 16.1953 19.5296 16.1957L11.9876 23.737C11.7271 23.9975 11.7271 24.4198 11.9876 24.6803Z" fill="#2C3E50"/>
<path d="M38 2.66699H2C0.895417 2.66699 0 3.56241 0 4.66699L0 28.667C0 29.7716 0.895417 30.667 2 30.667H8.66667C9.03483 30.667 9.33333 30.3685 9.33333 30.0003C9.33333 29.6322 9.03483 29.3337 8.66667 29.3337H2C1.63183 29.3337 1.33333 29.0352 1.33333 28.667V10.667H38.6667V28.667C38.6667 29.0352 38.3682 29.3337 38 29.3337H31.3333C30.9652 29.3337 30.6667 29.6322 30.6667 30.0003C30.6667 30.3685 30.9652 30.667 31.3333 30.667H38C39.1046 30.667 40 29.7716 40 28.667V4.66699C40 3.56241 39.1046 2.66699 38 2.66699ZM38.6667 8.00033H1.33333V4.66699C1.33333 4.29883 1.63183 4.00033 2 4.00033H38C38.3682 4.00033 38.6667 4.29883 38.6667 4.66699V8.00033Z" fill="#2C3E50"/>
<path d="M19.3333 12H4.66667C4.2985 12 4 12.2985 4 12.6667C4 13.0348 4.2985 13.3333 4.66667 13.3333H19.3333C19.7015 13.3333 20 13.0348 20 12.6667C20 12.2985 19.7015 12 19.3333 12Z" fill="#2C3E50"/>
</svg>
