<svg width="90" height="90" viewBox="0 0 120 120" fill="none"
    xmlns="http://www.w3.org/2000/svg">
    <path
        d="M38.4408 116.007C60.5908 109.61 79.1175 116.693 89.7908 113.61C100.464 110.527 121.111 97.9165 106.931 48.8098C92.7508 -0.296839 60.5175 1.20983 48.7742 4.59983C-6.20249 20.4765 -0.78916 127.337 38.4408 116.007Z"
        fill="#EFEFEF" />
    <path
        d="M19.166 20.4063C16.4093 20.4063 14.166 18.1629 14.166 15.4063C14.166 12.6496 16.4093 10.4062 19.166 10.4062C21.9227 10.4062 24.166 12.6496 24.166 15.4063C24.166 18.1629 21.9227 20.4063 19.166 20.4063ZM19.166 13.7396C18.2493 13.7396 17.4993 14.4863 17.4993 15.4063C17.4993 16.3263 18.2493 17.0729 19.166 17.0729C20.0827 17.0729 20.8327 16.3263 20.8327 15.4063C20.8327 14.4863 20.0827 13.7396 19.166 13.7396Z"
        fill="#A4AFC1" />
    <path
        d="M89.9629 12.0391L92.3199 9.68204L97.034 14.3961L94.6769 16.7531L89.9629 12.0391Z"
        fill="#A4AFC1" />
    <path
        d="M103.51 25.5898L105.867 23.2328L110.581 27.9469L108.224 30.3039L103.51 25.5898Z"
        fill="#A4AFC1" />
    <path
        d="M102.932 14.4121L107.646 9.69807L110.003 12.0551L105.289 16.7691L102.932 14.4121Z"
        fill="#A4AFC1" />
    <path
        d="M90.8333 34.0664V60.8331C90.8333 64.4997 87.8333 67.4997 84.1667 67.4997H27.5C24.7333 67.4997 22.5 65.2664 22.5 62.4997V34.0664L53.8667 49.5997C55.6 50.4664 57.7333 50.4664 59.4667 49.5997L90.8333 34.0664Z"
        fill="#F3F3F1" />
    <path
        d="M90.8333 30.832V34.0654L59.4667 49.5987C57.7333 50.4654 55.6 50.4654 53.8667 49.5987L22.5 34.0654V30.832C22.5 28.0654 24.7333 25.832 27.5 25.832H85.8333C88.6 25.832 90.8333 28.0654 90.8333 30.832Z"
        fill="#FFD088" />
    <path
        d="M30 62.4997V37.7797L22.5 34.0664V62.4997C22.5 65.2664 24.7333 67.4997 27.5 67.4997H35C32.2333 67.4997 30 65.2664 30 62.4997Z"
        fill="#D5DBE1" />
    <path
        d="M30 32.4354V30.832C30 28.0654 32.2333 25.832 35 25.832H27.5C24.7333 25.832 22.5 28.0654 22.5 30.832V34.0654L53.8667 49.5987C55.6 50.4654 57.7333 50.4654 59.4667 49.5987L60.4167 47.4987L30 32.4354Z"
        fill="#FFB800" />
    <path
        d="M78.3327 97.4994C88.9181 97.4994 97.4994 88.9182 97.4994 78.3327C97.4994 67.7472 88.9181 59.166 78.3327 59.166C67.7472 59.166 59.166 67.7472 59.166 78.3327C59.166 88.9182 67.7472 97.4994 78.3327 97.4994Z"
        fill="#FFD088" />
    <path
        d="M66.666 78.3327C66.666 69.0327 73.2927 61.2827 82.0827 59.5393C80.8694 59.2993 79.616 59.166 78.3327 59.166C67.746 59.166 59.166 67.746 59.166 78.3327C59.166 88.9194 67.746 97.4994 78.3327 97.4994C79.616 97.4994 80.8694 97.3694 82.0827 97.126C73.2927 95.3827 66.666 87.6327 66.666 78.3327Z"
        fill="#FFB800" />
    <path
        d="M87.5007 80.8327H78.334C76.954 80.8327 75.834 79.7127 75.834 78.3327V69.166H80.834V75.8327H87.5007V80.8327Z"
        fill="black" />
    <path
        d="M78.3327 100.001C66.386 100.001 56.666 90.2813 56.666 78.3346C56.666 66.388 66.386 56.668 78.3327 56.668C90.2794 56.668 99.9993 66.388 99.9993 78.3346C99.9993 90.2813 90.2794 100.001 78.3327 100.001ZM78.3327 61.668C69.1427 61.668 61.666 69.1446 61.666 78.3346C61.666 87.5246 69.1427 95.0013 78.3327 95.0013C87.5227 95.0013 94.9993 87.5246 94.9993 78.3346C94.9993 69.1446 87.5227 61.668 78.3327 61.668Z"
        fill="black" />
    <path
        d="M50.8333 70.0006H27.5C23.3667 70.0006 20 66.6373 20 62.5006V30.834C20 26.6973 23.3667 23.334 27.5 23.334H85.8333C89.9667 23.334 93.3333 26.6973 93.3333 30.834V50.834H88.3333V30.834C88.3333 29.454 87.21 28.334 85.8333 28.334H27.5C26.1233 28.334 25 29.454 25 30.834V62.5006C25 63.8806 26.1233 65.0006 27.5 65.0006H50.8333V70.0006Z"
        fill="black" />
    <path
        d="M56.6706 52.7581C55.324 52.7581 53.974 52.4514 52.7473 51.8348L21.3906 36.3081L23.6106 31.8281L54.9773 47.3615C56.014 47.8781 57.3306 47.8781 58.3473 47.3648L89.724 31.8281L91.944 36.3081L60.5773 51.8414C59.3573 52.4514 58.014 52.7581 56.6706 52.7581Z"
        fill="black" />
</svg>