<svg width="27" height="37" viewBox="0 0 57 37" fill="none" xmlns="http://www.w3.org/2000/svg">
<path d="M3.5 36C2.39543 36 1.5 35.1046 1.5 34L1.5 3C1.5 1.89543 2.39543 1 3.5 1L44.1148 1.00001C44.7111 1.00001 45.2763 1.26605 45.6562 1.72559L55.0414 13.0769C55.3378 13.4355 55.5 13.8861 55.5 14.3513L55.5 34C55.5 35.1046 54.6046 36 53.5 36L3.5 36Z" stroke="white" stroke-width="2"/>
<rect x="12.473" y="10.25" width="23.7297" height="18.1087" rx="1" stroke="white" stroke-width="2"/>
<line x1="12.5" y1="20.9259" x2="25.8333" y2="20.9259" stroke="white" stroke-width="2"/>
<line x1="25.5" y1="20.5555" x2="25.5" y2="29.4034" stroke="white" stroke-width="2"/>
<line x1="20.1667" y1="20.5555" x2="20.1667" y2="29.4034" stroke="white" stroke-width="2"/>
</svg>
