<svg width="90" height="90" viewBox="0 0 120 120" fill="none"
    xmlns="http://www.w3.org/2000/svg">
    <path
        d="M91.3905 13.3239C68.3405 13.7539 52.2838 2.10726 41.1772 2.31726C30.0705 2.52726 6.85718 9.35059 7.81384 60.4506C8.77051 111.551 40.2938 118.464 52.5138 118.237C109.724 117.167 132.217 12.5606 91.3905 13.3239Z"
        fill="#EFEFEF" />
    <path
        d="M56.6667 97.5013C75.5364 97.5013 90.8333 82.2044 90.8333 63.3346C90.8333 44.4649 75.5364 29.168 56.6667 29.168C37.7969 29.168 22.5 44.4649 22.5 63.3346C22.5 82.2044 37.7969 97.5013 56.6667 97.5013Z"
        fill="#2FDF84" />
    <path
        d="M29.3333 63.3346C29.3333 45.618 42.82 31.0546 60.0833 29.3413C58.96 29.228 57.82 29.168 56.6667 29.168C37.7967 29.168 22.5 44.4646 22.5 63.3346C22.5 82.2046 37.7967 97.5013 56.6667 97.5013C57.82 97.5013 58.96 97.4413 60.0833 97.328C42.82 95.6146 29.3333 81.0513 29.3333 63.3346Z"
        fill="#00B871" />
    <path
        d="M95.9629 100.166L98.3199 97.809L103.034 102.523L100.677 104.88L95.9629 100.166Z"
        fill="#A4AFC1" />
    <path
        d="M96.5547 88.9434L101.269 84.2293L103.626 86.5863L98.9117 91.3004L96.5547 88.9434Z"
        fill="#A4AFC1" />
    <path
        d="M83.0039 102.496L87.718 97.7821L90.075 100.139L85.3609 104.853L83.0039 102.496Z"
        fill="#A4AFC1" />
    <path
        d="M90 23.3906C87.2433 23.3906 85 21.1473 85 18.3906C85 15.634 87.2433 13.3906 90 13.3906C92.7567 13.3906 95 15.634 95 18.3906C95 21.1473 92.7567 23.3906 90 23.3906ZM90 16.724C89.08 16.724 88.3333 17.474 88.3333 18.3906C88.3333 19.3073 89.08 20.0573 90 20.0573C90.92 20.0573 91.6667 19.3073 91.6667 18.3906C91.6667 17.474 90.92 16.724 90 16.724Z"
        fill="#A4AFC1" />
    <path
        d="M56.6667 99.9993C36.45 99.9993 20 83.5493 20 63.3327C20 43.116 36.45 26.666 56.6667 26.666C63.7 26.666 70.54 28.6727 76.4467 32.4627L73.7433 36.6693C68.6467 33.3993 62.74 31.666 56.6667 31.666C39.2067 31.666 25 45.8727 25 63.3327C25 80.7927 39.2067 94.9993 56.6667 94.9993C74.1267 94.9993 88.3333 80.7927 88.3333 63.3327C88.3333 62.2893 88.2833 61.256 88.1867 60.2393L93.1633 59.756C93.2767 60.936 93.3333 62.126 93.3333 63.3327C93.3333 83.5493 76.8833 99.9993 56.6667 99.9993Z"
        fill="black" />
    <path
        d="M60.8331 71.6658C60.1931 71.6658 59.5531 71.4224 59.0664 70.9324L44.0664 55.9324L47.6031 52.3958L60.8364 65.6291L95.7331 30.7324L99.2697 34.2691L62.6031 70.9358C62.1131 71.4224 61.4731 71.6658 60.8331 71.6658Z"
        fill="black" />
</svg>