<svg width="44" height="45" viewBox="0 0 44 45" fill="none" xmlns="http://www.w3.org/2000/svg">
                    <path
                        d="M36.6668 15.1667H25.6668C24.6543 15.1667 23.8335 15.9875 23.8335 17V35.3333C23.8335 36.3459 24.6543 37.1667 25.6668 37.1667H36.6668C37.6794 37.1667 38.5002 36.3459 38.5002 35.3333V17C38.5002 15.9875 37.6794 15.1667 36.6668 15.1667Z"
                        stroke="#2C3E50" stroke-width="1.83333" stroke-linecap="round" stroke-linejoin="round" />
                    <path
                        d="M33 15.1667V9.66666C33 9.18043 32.8068 8.71412 32.463 8.3703C32.1192 8.02648 31.6529 7.83333 31.1667 7.83333H7.33333C6.8471 7.83333 6.38079 8.02648 6.03697 8.3703C5.69315 8.71412 5.5 9.18043 5.5 9.66666V31.6667C5.5 32.1529 5.69315 32.6192 6.03697 32.963C6.38079 33.3068 6.8471 33.5 7.33333 33.5H23.8333"
                        stroke="#2C3E50" stroke-width="1.83333" stroke-linecap="round" stroke-linejoin="round" />
                    <path d="M29.3335 17H33.0002" stroke="#2C3E50" stroke-width="1.83333" stroke-linecap="round"
                        stroke-linejoin="round" />
                </svg>