<svg width="40" height="41" viewBox="0 0 40 41" fill="none" xmlns="http://www.w3.org/2000/svg">
<g clip-path="url(#clip0)">
<path d="M40 20.9902C40 30.7837 32.9608 38.9331 23.6653 40.6547C22.4776 40.8752 21.2523 40.9902 20 40.9902C18.6237 40.9902 17.28 40.8515 15.982 40.5862C6.86203 38.7266 0 30.6596 0 20.9902C0 15.6588 2.08656 10.8131 5.48812 7.22859C5.68484 7.02047 5.88648 6.81719 6.09219 6.61797C9.69141 3.13391 14.5951 0.990234 20 0.990234C25.4049 0.990234 30.3086 3.13391 33.9077 6.61797C33.9927 6.69961 34.0767 6.78289 34.16 6.86609C37.769 10.4833 40 15.4768 40 20.9902Z" fill="#1BA27A"/>
<path d="M23.6655 18.0084V13.5513H34.1602V6.61816H5.48832V13.5512H15.9822V18.0255C7.50551 18.4589 1.15527 20.2353 1.15527 22.3611C1.15527 24.4868 7.50551 26.2631 15.9822 26.6966V40.5864C17.2802 40.8517 18.6239 40.9904 20.0002 40.9904C21.2525 40.9904 22.4778 40.8754 23.6655 40.655V26.7137C32.3186 26.3121 38.8451 24.5161 38.8451 22.3611C38.8451 20.206 32.3186 18.41 23.6655 18.0084ZM20.0002 25.1007C10.5446 25.1007 2.87941 23.6762 2.87941 21.9186C2.87941 20.4182 8.46551 19.1603 15.9823 18.8247V23.9211C17.2566 24.1047 18.5407 24.197 19.8239 24.197C21.108 24.197 22.3921 24.1047 23.6656 23.9211V18.8092C31.3595 19.1218 37.1203 20.3945 37.1203 21.9186C37.1202 23.6761 29.4549 25.1007 20.0002 25.1007Z" fill="#F0EFEB"/>
</g>
<defs>
<clipPath id="clip0">
<rect width="40" height="40" fill="white" transform="translate(0 0.990234)"/>
</clipPath>
</defs>
</svg>
