<svg width="24" height="35" viewBox="0 0 40 35" fill="none" xmlns="http://www.w3.org/2000/svg">
<path d="M22.8571 0.5C13.3905 0.5 5.71429 8.11222 5.71429 17.5H0L7.40952 24.8478L7.54286 25.1122L15.2381 17.5H9.52381C9.52381 10.19 15.4857 4.27778 22.8571 4.27778C30.2286 4.27778 36.1905 10.19 36.1905 17.5C36.1905 24.81 30.2286 30.7222 22.8571 30.7222C19.181 30.7222 15.8476 29.23 13.4476 26.8311L10.7429 29.5133C13.8476 32.5922 18.1143 34.5 22.8571 34.5C32.3238 34.5 40 26.8878 40 17.5C40 8.11222 32.3238 0.5 22.8571 0.5ZM20.9524 9.94444V19.3889L29.1048 24.1867L30.4762 21.9011L23.8095 17.9722V9.94444H20.9524Z" fill="white"/>
</svg>
