<svg width="24" height="24" viewBox="0 0 44 33" fill="none" xmlns="http://www.w3.org/2000/svg">
<path d="M2.67749 32.9467H38.3684C39.8456 32.9467 41.0459 31.7463 41.0459 30.2692V24.227H28.2341C27.2747 24.227 26.3376 24.0396 25.4585 23.6647C24.6106 23.3077 23.8475 22.7901 23.196 22.1386C22.5445 21.4871 22.0268 20.724 21.6698 19.8761C21.2994 18.997 21.1075 18.0599 21.1075 17.1004V16.3463C21.1075 15.3868 21.295 14.4497 21.6698 13.5706C22.0268 12.7227 22.5445 11.9597 23.196 11.3081C23.8475 10.6566 24.6106 10.139 25.4585 9.78197C26.3376 9.41158 27.2747 9.21969 28.2341 9.21969H41.0459V3.17749C41.0459 1.70041 39.8456 0.5 38.3684 0.5H2.67749C1.20041 0.5 0 1.70041 0 3.17749V30.2692C0 31.7463 1.20041 32.9467 2.67749 32.9467Z" fill="white"/>
<path d="M43.9992 13.9046C43.9992 12.7934 43.1023 11.8965 41.9911 11.8965H41.0451H28.2333C25.7744 11.8965 23.7842 13.8868 23.7842 16.3456V17.0997C23.7842 19.5586 25.7744 21.5488 28.2333 21.5488H41.0451H41.9911C43.1023 21.5488 43.9992 20.6518 43.9992 19.5407V13.9046ZM28.9607 19.0855C27.6532 19.0855 26.5955 18.028 26.5955 16.7204C26.5955 15.4129 27.6532 14.3553 28.9607 14.3553C30.2682 14.3553 31.3258 15.4129 31.3258 16.7204C31.3258 18.028 30.2682 19.0855 28.9607 19.0855Z" fill="white"/>
</svg>
