<svg width="26" height="19" viewBox="0 0 26 19" fill="none" xmlns="http://www.w3.org/2000/svg">
<path fill-rule="evenodd" clip-rule="evenodd" d="M3.35492 0.733429C1.69807 0.733429 0.354919 2.07657 0.354919 3.73343V15.2668C0.354919 16.9237 1.69806 18.2668 3.35492 18.2668H20.9632C22.6201 18.2668 23.9632 16.9237 23.9632 15.2668V13.6164H13.1591C12.6068 13.6164 12.1591 13.1687 12.1591 12.6164V6.38379C12.1591 5.8315 12.6068 5.38379 13.1591 5.38379H23.9632V3.73343C23.9632 2.07658 22.6201 0.733429 20.9632 0.733429H3.35492Z" fill="white"/>
<path d="M13.443 7.31223C13.443 7.03608 13.6669 6.81223 13.943 6.81223H25.1451C25.4212 6.81223 25.6451 7.03608 25.6451 7.31223V11.688C25.6451 11.9641 25.4212 12.188 25.1451 12.188H13.943C13.6669 12.188 13.443 11.9641 13.443 11.688V7.31223Z" fill="white"/>
<path d="M15.4814 9.42652C15.4814 8.72494 16.0501 8.15619 16.7517 8.15619C17.4533 8.15619 18.022 8.72494 18.022 9.42652V9.57372C18.022 10.2753 17.4533 10.8441 16.7517 10.8441C16.0501 10.8441 15.4814 10.2753 15.4814 9.57373V9.42652Z" fill="#78839C"/>
</svg>
