<?xml version="1.0"?>
<svg xmlns="http://www.w3.org/2000/svg" xmlns:xlink="http://www.w3.org/1999/xlink" version="1.1" id="Capa_1" x="0px" y="0px" viewBox="0 0 512 512" style="enable-background:new 0 0 512 512;" xml:space="preserve" width="512px" height="512px"><g><g>
	<g>
		<path d="M444.32,356.52L421,340.973V206c0-85.925-66.023-156.707-150-164.311V15c0-8.284-6.716-15-15-15s-15,6.716-15,15v26.689    C157.023,49.293,91,120.075,91,206v134.973L67.68,356.52C63.506,359.302,61,363.984,61,369v60c0,8.284,6.716,15,15,15h360    c8.284,0,15-6.716,15-15v-60C451,363.984,448.493,359.301,444.32,356.52z" data-original="#000000" class="active-path" data-old_color="#000000" fill="#F7B924"/>
	</g>
</g><g>
	<g>
		<path d="M186.732,474c14.713,22.843,40.256,38,69.268,38c29.011,0,54.555-15.157,69.267-38H186.732z" data-original="#000000" class="active-path" data-old_color="#000000" fill="#F7B924"/>
	</g>
</g></g> </svg>
