<svg width="59" height="59" viewBox="0 0 59 59" fill="none" xmlns="http://www.w3.org/2000/svg">
<path d="M31.2285 11.4904C30.6595 11.4368 30.0831 11.4082 29.5 11.4082C19.4746 11.4082 11.3459 19.508 11.3459 29.5C11.3459 39.492 19.4746 47.5918 29.5 47.5918C30.0831 47.5918 30.6595 47.5632 31.2285 47.5096C22.0139 46.642 14.803 38.9108 14.803 29.5C14.803 20.0892 22.0139 12.358 31.2285 11.4904Z" fill="#D4E1F4"/>
<path d="M22.9085 28.1487C22.8395 28.2076 22.7827 28.2796 22.7414 28.3605C22.7002 28.4414 22.6753 28.5297 22.6682 28.6202C22.661 28.7107 22.6718 28.8018 22.6998 28.8882C22.7279 28.9745 22.7727 29.0545 22.8317 29.1236L26.5222 33.4449C26.6394 33.5822 26.8057 33.6682 26.9855 33.6845C27.1653 33.7008 27.3443 33.6462 27.4844 33.5322L36.0793 26.5397C36.1498 26.4824 36.2082 26.4118 36.2514 26.3319C36.2945 26.252 36.3215 26.1644 36.3308 26.074C36.3401 25.9837 36.3315 25.8925 36.3055 25.8054C36.2795 25.7184 36.2367 25.6374 36.1794 25.567C36.1221 25.4965 36.0515 25.4381 35.9716 25.3949C35.8917 25.3518 35.8041 25.3248 35.7137 25.3155C35.6234 25.3062 35.5321 25.3148 35.4451 25.3408C35.3581 25.3668 35.2771 25.4097 35.2067 25.467L27.1354 32.0335L23.8829 28.2256C23.7639 28.0862 23.5944 27.9998 23.4116 27.9854C23.2289 27.971 23.048 28.0297 22.9085 28.1487Z" fill="#0635C9"/>
<path d="M24.0934 14.4861C23.6325 14.6536 23.1727 14.845 22.7281 15.0552C22.5624 15.1336 22.4345 15.2746 22.3727 15.4473C22.3109 15.6199 22.3202 15.8101 22.3986 15.9758C22.477 16.1416 22.6181 16.2695 22.7907 16.3313C22.9634 16.3931 23.1535 16.3837 23.3193 16.3053C23.7249 16.1135 24.144 15.9388 24.565 15.7861C24.6503 15.7551 24.7288 15.7077 24.7958 15.6464C24.8628 15.5851 24.9171 15.5113 24.9555 15.429C24.994 15.3468 25.0159 15.2577 25.0199 15.167C25.024 15.0763 25.0102 14.9857 24.9792 14.9004C24.9482 14.815 24.9008 14.7366 24.8395 14.6696C24.7782 14.6026 24.7044 14.5483 24.6221 14.5098C24.5399 14.4713 24.4508 14.4495 24.3601 14.4454C24.2694 14.4413 24.1788 14.4552 24.0934 14.4861Z" fill="#0635C9"/>
<path d="M14.2871 30.1915C14.4705 30.1915 14.6463 30.1186 14.776 29.989C14.9057 29.8593 14.9785 29.6834 14.9785 29.5001C14.9779 27.1375 15.5504 24.8101 16.647 22.7174C17.7435 20.6248 19.3314 18.8294 21.2743 17.4853C21.4235 17.3803 21.5251 17.2207 21.5572 17.0411C21.5892 16.8616 21.5489 16.6767 21.4452 16.5267C21.3415 16.3766 21.1828 16.2737 21.0035 16.2402C20.8242 16.2067 20.639 16.2453 20.4881 16.3478C18.3611 17.8191 16.6228 19.7844 15.4223 22.0752C14.2219 24.366 13.5951 26.9138 13.5957 29.5001C13.5957 29.6834 13.6685 29.8593 13.7982 29.989C13.9279 30.1186 14.1037 30.1915 14.2871 30.1915Z" fill="#0635C9"/>
<path d="M29.5 48.2832C39.8912 48.2832 48.345 39.8571 48.345 29.5C48.345 19.143 39.8912 10.7168 29.5 10.7168C25.1675 10.712 20.9664 12.2043 17.6078 14.9411C17.5322 15.0019 17.4701 15.078 17.4258 15.1644C17.3814 15.2508 17.3557 15.3456 17.3504 15.4425C17.345 15.5395 17.3601 15.6365 17.3946 15.7272C17.4292 15.818 17.4824 15.9005 17.5509 15.9693L17.5516 15.9699C17.6728 16.0907 17.8345 16.1623 18.0054 16.1707C18.1764 16.1791 18.3443 16.1238 18.4768 16.0154C21.5899 13.4783 25.484 12.095 29.5 12.0996C39.1286 12.0996 46.9622 19.9054 46.9622 29.5C46.9622 39.0947 39.1286 46.9004 29.5 46.9004C19.8714 46.9004 12.0378 39.0947 12.0378 29.5C12.0343 25.8031 13.2173 22.2027 15.413 19.2284C15.4672 19.1553 15.5065 19.0721 15.5285 18.9838C15.5505 18.8954 15.5549 18.8036 15.5413 18.7135C15.5277 18.6235 15.4964 18.537 15.4492 18.4591C15.4021 18.3812 15.34 18.3134 15.2665 18.2596C15.1931 18.2058 15.1097 18.1671 15.0212 18.1456C14.9327 18.1241 14.8409 18.1204 14.7509 18.1346C14.661 18.1487 14.5747 18.1806 14.4971 18.2282C14.4195 18.2758 14.3521 18.3384 14.2987 18.4122C11.9286 21.6228 10.6514 25.5093 10.655 29.5C10.655 39.8571 19.1089 48.2832 29.5 48.2832Z" fill="#0635C9"/>
</svg>
