<svg width="6" height="103" viewBox="0 0 6 103" fill="none" xmlns="http://www.w3.org/2000/svg">
<path opacity="0.75" d="M2.72991 102.08C2.38894 102.081 2.05106 102.015 1.73568 101.886C1.42029 101.756 1.13358 101.566 0.892018 101.325C0.650454 101.084 0.458776 100.798 0.327992 100.483C0.197207 100.169 0.1299 99.8309 0.129902 99.49V2.59999C0.12858 2.25818 0.194929 1.91949 0.325123 1.60344C0.455317 1.2874 0.646782 1.00025 0.888478 0.758557C1.13017 0.516861 1.41731 0.325396 1.73336 0.195202C2.0494 0.0650083 2.3881 -0.00133342 2.72991 -1.1134e-05C3.07087 -1.36754e-05 3.40849 0.0673015 3.72338 0.198086C4.03826 0.328871 4.3242 0.520548 4.56484 0.762112C4.80547 1.00368 4.99606 1.29037 5.12563 1.60576C5.2552 1.92115 5.32122 2.25902 5.3199 2.59999V99.49C5.3199 100.177 5.04702 100.836 4.5613 101.321C4.07558 101.807 3.41682 102.08 2.72991 102.08Z" fill="url(#paint0_linear)"/>
<defs>
<linearGradient id="paint0_linear" x1="2378.36" y1="21221.4" x2="2378.36" y2="12661" gradientUnits="userSpaceOnUse">
<stop stop-color="#79D3FE"/>
<stop offset="1" stop-color="#79D3FE" stop-opacity="0"/>
</linearGradient>
</defs>
</svg>
